<svg width="1024" height="319" viewBox="0 0 1024 319" fill="none" xmlns="http://www.w3.org/2000/svg">
<g clip-path="url(#clip0_103_2)">
<g filter="url(#filter0_d_103_2)">
<path d="M510 4L646.025 92.6386L889.472 119.394L730.094 200.931L744.526 306.106L510 267.86L275.474 306.106L289.907 200.931L130.528 119.394L373.975 92.6386L510 4Z" fill="#FEDD6B"/>
<path d="M645.479 97.6087L872.341 122.542L727.816 196.48L724.658 198.096L725.14 201.611L738.653 300.082L510.805 262.925L510 262.794L509.195 262.925L281.347 300.082L294.86 201.611L295.342 198.096L292.184 196.48L147.659 122.542L374.521 97.6087L375.706 97.4785L376.704 96.8277L510 9.96788L643.296 96.8277L644.294 97.4785L645.479 97.6087Z" stroke="#003F67" stroke-width="10"/>
</g>
<mask id="path-3-outside-1_103_2" maskUnits="userSpaceOnUse" x="265" y="99" width="488" height="154" fill="black">
<rect fill="white" x="265" y="99" width="488" height="154"/>
<path d="M331.309 105.577H342.144V133.229L370.342 105.577H384.219L357.9 131.075L384.219 159H369.795L350.107 138.629L342.144 146.319V159H331.309V105.577ZM407.769 105.577H419.253L445.093 159H433.711L429.438 150.011H398.232L394.097 159H382.681L407.769 105.577ZM425.166 141.09L413.613 116.822L402.368 141.09H425.166ZM453.33 105.577H464.165L497.456 123.009V105.577H508.291V159H497.456V134.493L464.165 117.164V159H453.33V105.577ZM525.894 143.106C527.83 144.2 529.79 145.191 531.772 146.08C533.778 146.946 535.851 147.687 537.993 148.302C540.135 148.894 542.38 149.35 544.727 149.669C547.096 149.988 549.614 150.147 552.28 150.147C555.493 150.147 558.228 149.942 560.483 149.532C562.739 149.099 564.574 148.518 565.986 147.789C567.422 147.037 568.459 146.148 569.097 145.123C569.757 144.098 570.088 142.981 570.088 141.773C570.088 139.837 569.279 138.31 567.661 137.193C566.043 136.054 563.548 135.484 560.176 135.484C558.695 135.484 557.134 135.587 555.493 135.792C553.853 135.974 552.189 136.179 550.503 136.407C548.84 136.635 547.188 136.852 545.547 137.057C543.929 137.239 542.402 137.33 540.967 137.33C538.574 137.33 536.273 137.022 534.062 136.407C531.875 135.792 529.927 134.869 528.218 133.639C526.532 132.408 525.187 130.87 524.185 129.024C523.182 127.179 522.681 125.025 522.681 122.564C522.681 121.106 522.874 119.659 523.262 118.224C523.672 116.788 524.31 115.421 525.176 114.122C526.064 112.8 527.204 111.581 528.594 110.465C529.984 109.326 531.659 108.346 533.618 107.525C535.601 106.705 537.879 106.067 540.454 105.611C543.052 105.133 546.003 104.894 549.307 104.894C551.699 104.894 554.103 105.03 556.519 105.304C558.934 105.554 561.281 105.919 563.56 106.397C565.861 106.876 568.071 107.457 570.19 108.141C572.31 108.801 574.281 109.542 576.104 110.362L571.353 119.112C569.849 118.451 568.231 117.848 566.499 117.301C564.767 116.731 562.956 116.241 561.064 115.831C559.173 115.421 557.214 115.102 555.186 114.874C553.18 114.623 551.13 114.498 549.033 114.498C546.048 114.498 543.587 114.715 541.65 115.147C539.736 115.58 538.21 116.139 537.07 116.822C535.931 117.483 535.133 118.235 534.678 119.078C534.245 119.898 534.028 120.719 534.028 121.539C534.028 123.134 534.746 124.444 536.182 125.47C537.617 126.472 539.805 126.974 542.744 126.974C543.929 126.974 545.285 126.894 546.812 126.734C548.361 126.552 549.979 126.358 551.665 126.153C553.374 125.948 555.106 125.766 556.86 125.606C558.638 125.424 560.358 125.333 562.021 125.333C565.166 125.333 567.946 125.686 570.361 126.393C572.799 127.099 574.839 128.113 576.479 129.435C578.12 130.733 579.362 132.317 580.205 134.186C581.048 136.031 581.47 138.105 581.47 140.406C581.47 143.482 580.752 146.228 579.316 148.644C577.904 151.036 575.876 153.064 573.232 154.728C570.612 156.368 567.445 157.621 563.73 158.487C560.016 159.33 555.881 159.752 551.323 159.752C548.315 159.752 545.376 159.558 542.505 159.171C539.634 158.806 536.877 158.282 534.233 157.599C531.613 156.892 529.106 156.061 526.714 155.104C524.344 154.124 522.145 153.053 520.117 151.891L525.894 143.106ZM611.616 105.577H623.101L648.94 159H637.559L633.286 150.011H602.08L597.944 159H586.528L611.616 105.577ZM629.014 141.09L617.461 116.822L606.216 141.09H629.014ZM655.879 105.577H666.782V159H655.879V105.577ZM278.364 231.106C280.301 232.2 282.261 233.191 284.243 234.08C286.248 234.946 288.322 235.687 290.464 236.302C292.606 236.894 294.85 237.35 297.197 237.669C299.567 237.988 302.085 238.147 304.751 238.147C307.964 238.147 310.698 237.942 312.954 237.532C315.21 237.099 317.044 236.518 318.457 235.789C319.893 235.037 320.929 234.148 321.567 233.123C322.228 232.098 322.559 230.981 322.559 229.773C322.559 227.837 321.75 226.31 320.132 225.193C318.514 224.054 316.019 223.484 312.646 223.484C311.165 223.484 309.604 223.587 307.964 223.792C306.323 223.974 304.66 224.179 302.974 224.407C301.31 224.635 299.658 224.852 298.018 225.057C296.4 225.239 294.873 225.33 293.438 225.33C291.045 225.33 288.743 225.022 286.533 224.407C284.346 223.792 282.397 222.869 280.688 221.639C279.002 220.408 277.658 218.87 276.655 217.024C275.653 215.179 275.151 213.025 275.151 210.564C275.151 209.106 275.345 207.659 275.732 206.224C276.143 204.788 276.781 203.421 277.646 202.122C278.535 200.8 279.674 199.581 281.064 198.465C282.454 197.326 284.129 196.346 286.089 195.525C288.071 194.705 290.35 194.067 292.925 193.611C295.522 193.133 298.473 192.894 301.777 192.894C304.17 192.894 306.574 193.03 308.989 193.304C311.405 193.554 313.752 193.919 316.03 194.397C318.332 194.876 320.542 195.457 322.661 196.141C324.78 196.801 326.751 197.542 328.574 198.362L323.823 207.112C322.319 206.451 320.701 205.848 318.97 205.301C317.238 204.731 315.426 204.241 313.535 203.831C311.644 203.421 309.684 203.102 307.656 202.874C305.651 202.623 303.6 202.498 301.504 202.498C298.519 202.498 296.058 202.715 294.121 203.147C292.207 203.58 290.68 204.139 289.541 204.822C288.402 205.483 287.604 206.235 287.148 207.078C286.715 207.898 286.499 208.719 286.499 209.539C286.499 211.134 287.217 212.444 288.652 213.47C290.088 214.472 292.275 214.974 295.215 214.974C296.4 214.974 297.756 214.894 299.282 214.734C300.832 214.552 302.45 214.358 304.136 214.153C305.845 213.948 307.576 213.766 309.331 213.606C311.108 213.424 312.829 213.333 314.492 213.333C317.637 213.333 320.417 213.686 322.832 214.393C325.27 215.099 327.31 216.113 328.95 217.435C330.591 218.733 331.833 220.317 332.676 222.186C333.519 224.031 333.94 226.105 333.94 228.406C333.94 231.482 333.223 234.228 331.787 236.644C330.374 239.036 328.346 241.064 325.703 242.728C323.083 244.368 319.915 245.621 316.201 246.487C312.487 247.33 308.351 247.752 303.794 247.752C300.786 247.752 297.847 247.558 294.976 247.171C292.104 246.806 289.347 246.282 286.704 245.599C284.084 244.892 281.577 244.061 279.185 243.104C276.815 242.124 274.616 241.053 272.588 239.891L278.364 231.106ZM361.968 203.079H342.246V193.577H392.524V203.079H372.803V247H361.968V203.079ZM422.329 193.577H433.813L459.653 247H448.271L443.999 238.011H412.793L408.657 247H397.241L422.329 193.577ZM439.727 229.09L428.174 204.822L416.929 229.09H439.727ZM467.959 193.577H495.132C499.233 193.577 502.788 194.01 505.796 194.876C508.804 195.719 511.299 196.95 513.281 198.567C515.264 200.185 516.733 202.156 517.69 204.48C518.67 206.805 519.16 209.437 519.16 212.376C519.16 214.358 518.921 216.25 518.442 218.05C517.964 219.827 517.223 221.468 516.221 222.972C515.241 224.476 513.999 225.82 512.495 227.005C510.991 228.167 509.225 229.135 507.197 229.91L518.818 247H505.557L495.508 231.824H495.2L478.794 231.79V247H467.959V193.577ZM495.405 222.425C497.456 222.425 499.245 222.186 500.771 221.707C502.321 221.229 503.608 220.556 504.634 219.69C505.682 218.825 506.457 217.776 506.958 216.546C507.482 215.293 507.744 213.903 507.744 212.376C507.744 209.391 506.719 207.09 504.668 205.472C502.617 203.831 499.53 203.011 495.405 203.011H478.794V222.425H495.405ZM555.254 193.577H566.089V237.498H597.158V247H555.254V193.577ZM606.318 193.577H617.222V247H606.318V193.577ZM630.996 193.577H641.831L675.122 211.009V193.577H685.957V247H675.122V222.493L641.831 205.164V247H630.996V193.577ZM701.064 193.577H746.558V203.079H711.899V213.743H742.593V222.664H711.899V237.532H747.275V247H701.064V193.577Z"/>
</mask>
<path d="M331.309 105.577H342.144V133.229L370.342 105.577H384.219L357.9 131.075L384.219 159H369.795L350.107 138.629L342.144 146.319V159H331.309V105.577ZM407.769 105.577H419.253L445.093 159H433.711L429.438 150.011H398.232L394.097 159H382.681L407.769 105.577ZM425.166 141.09L413.613 116.822L402.368 141.09H425.166ZM453.33 105.577H464.165L497.456 123.009V105.577H508.291V159H497.456V134.493L464.165 117.164V159H453.33V105.577ZM525.894 143.106C527.83 144.2 529.79 145.191 531.772 146.08C533.778 146.946 535.851 147.687 537.993 148.302C540.135 148.894 542.38 149.35 544.727 149.669C547.096 149.988 549.614 150.147 552.28 150.147C555.493 150.147 558.228 149.942 560.483 149.532C562.739 149.099 564.574 148.518 565.986 147.789C567.422 147.037 568.459 146.148 569.097 145.123C569.757 144.098 570.088 142.981 570.088 141.773C570.088 139.837 569.279 138.31 567.661 137.193C566.043 136.054 563.548 135.484 560.176 135.484C558.695 135.484 557.134 135.587 555.493 135.792C553.853 135.974 552.189 136.179 550.503 136.407C548.84 136.635 547.188 136.852 545.547 137.057C543.929 137.239 542.402 137.33 540.967 137.33C538.574 137.33 536.273 137.022 534.062 136.407C531.875 135.792 529.927 134.869 528.218 133.639C526.532 132.408 525.187 130.87 524.185 129.024C523.182 127.179 522.681 125.025 522.681 122.564C522.681 121.106 522.874 119.659 523.262 118.224C523.672 116.788 524.31 115.421 525.176 114.122C526.064 112.8 527.204 111.581 528.594 110.465C529.984 109.326 531.659 108.346 533.618 107.525C535.601 106.705 537.879 106.067 540.454 105.611C543.052 105.133 546.003 104.894 549.307 104.894C551.699 104.894 554.103 105.03 556.519 105.304C558.934 105.554 561.281 105.919 563.56 106.397C565.861 106.876 568.071 107.457 570.19 108.141C572.31 108.801 574.281 109.542 576.104 110.362L571.353 119.112C569.849 118.451 568.231 117.848 566.499 117.301C564.767 116.731 562.956 116.241 561.064 115.831C559.173 115.421 557.214 115.102 555.186 114.874C553.18 114.623 551.13 114.498 549.033 114.498C546.048 114.498 543.587 114.715 541.65 115.147C539.736 115.58 538.21 116.139 537.07 116.822C535.931 117.483 535.133 118.235 534.678 119.078C534.245 119.898 534.028 120.719 534.028 121.539C534.028 123.134 534.746 124.444 536.182 125.47C537.617 126.472 539.805 126.974 542.744 126.974C543.929 126.974 545.285 126.894 546.812 126.734C548.361 126.552 549.979 126.358 551.665 126.153C553.374 125.948 555.106 125.766 556.86 125.606C558.638 125.424 560.358 125.333 562.021 125.333C565.166 125.333 567.946 125.686 570.361 126.393C572.799 127.099 574.839 128.113 576.479 129.435C578.12 130.733 579.362 132.317 580.205 134.186C581.048 136.031 581.47 138.105 581.47 140.406C581.47 143.482 580.752 146.228 579.316 148.644C577.904 151.036 575.876 153.064 573.232 154.728C570.612 156.368 567.445 157.621 563.73 158.487C560.016 159.33 555.881 159.752 551.323 159.752C548.315 159.752 545.376 159.558 542.505 159.171C539.634 158.806 536.877 158.282 534.233 157.599C531.613 156.892 529.106 156.061 526.714 155.104C524.344 154.124 522.145 153.053 520.117 151.891L525.894 143.106ZM611.616 105.577H623.101L648.94 159H637.559L633.286 150.011H602.08L597.944 159H586.528L611.616 105.577ZM629.014 141.09L617.461 116.822L606.216 141.09H629.014ZM655.879 105.577H666.782V159H655.879V105.577ZM278.364 231.106C280.301 232.2 282.261 233.191 284.243 234.08C286.248 234.946 288.322 235.687 290.464 236.302C292.606 236.894 294.85 237.35 297.197 237.669C299.567 237.988 302.085 238.147 304.751 238.147C307.964 238.147 310.698 237.942 312.954 237.532C315.21 237.099 317.044 236.518 318.457 235.789C319.893 235.037 320.929 234.148 321.567 233.123C322.228 232.098 322.559 230.981 322.559 229.773C322.559 227.837 321.75 226.31 320.132 225.193C318.514 224.054 316.019 223.484 312.646 223.484C311.165 223.484 309.604 223.587 307.964 223.792C306.323 223.974 304.66 224.179 302.974 224.407C301.31 224.635 299.658 224.852 298.018 225.057C296.4 225.239 294.873 225.33 293.438 225.33C291.045 225.33 288.743 225.022 286.533 224.407C284.346 223.792 282.397 222.869 280.688 221.639C279.002 220.408 277.658 218.87 276.655 217.024C275.653 215.179 275.151 213.025 275.151 210.564C275.151 209.106 275.345 207.659 275.732 206.224C276.143 204.788 276.781 203.421 277.646 202.122C278.535 200.8 279.674 199.581 281.064 198.465C282.454 197.326 284.129 196.346 286.089 195.525C288.071 194.705 290.35 194.067 292.925 193.611C295.522 193.133 298.473 192.894 301.777 192.894C304.17 192.894 306.574 193.03 308.989 193.304C311.405 193.554 313.752 193.919 316.03 194.397C318.332 194.876 320.542 195.457 322.661 196.141C324.78 196.801 326.751 197.542 328.574 198.362L323.823 207.112C322.319 206.451 320.701 205.848 318.97 205.301C317.238 204.731 315.426 204.241 313.535 203.831C311.644 203.421 309.684 203.102 307.656 202.874C305.651 202.623 303.6 202.498 301.504 202.498C298.519 202.498 296.058 202.715 294.121 203.147C292.207 203.58 290.68 204.139 289.541 204.822C288.402 205.483 287.604 206.235 287.148 207.078C286.715 207.898 286.499 208.719 286.499 209.539C286.499 211.134 287.217 212.444 288.652 213.47C290.088 214.472 292.275 214.974 295.215 214.974C296.4 214.974 297.756 214.894 299.282 214.734C300.832 214.552 302.45 214.358 304.136 214.153C305.845 213.948 307.576 213.766 309.331 213.606C311.108 213.424 312.829 213.333 314.492 213.333C317.637 213.333 320.417 213.686 322.832 214.393C325.27 215.099 327.31 216.113 328.95 217.435C330.591 218.733 331.833 220.317 332.676 222.186C333.519 224.031 333.94 226.105 333.94 228.406C333.94 231.482 333.223 234.228 331.787 236.644C330.374 239.036 328.346 241.064 325.703 242.728C323.083 244.368 319.915 245.621 316.201 246.487C312.487 247.33 308.351 247.752 303.794 247.752C300.786 247.752 297.847 247.558 294.976 247.171C292.104 246.806 289.347 246.282 286.704 245.599C284.084 244.892 281.577 244.061 279.185 243.104C276.815 242.124 274.616 241.053 272.588 239.891L278.364 231.106ZM361.968 203.079H342.246V193.577H392.524V203.079H372.803V247H361.968V203.079ZM422.329 193.577H433.813L459.653 247H448.271L443.999 238.011H412.793L408.657 247H397.241L422.329 193.577ZM439.727 229.09L428.174 204.822L416.929 229.09H439.727ZM467.959 193.577H495.132C499.233 193.577 502.788 194.01 505.796 194.876C508.804 195.719 511.299 196.95 513.281 198.567C515.264 200.185 516.733 202.156 517.69 204.48C518.67 206.805 519.16 209.437 519.16 212.376C519.16 214.358 518.921 216.25 518.442 218.05C517.964 219.827 517.223 221.468 516.221 222.972C515.241 224.476 513.999 225.82 512.495 227.005C510.991 228.167 509.225 229.135 507.197 229.91L518.818 247H505.557L495.508 231.824H495.2L478.794 231.79V247H467.959V193.577ZM495.405 222.425C497.456 222.425 499.245 222.186 500.771 221.707C502.321 221.229 503.608 220.556 504.634 219.69C505.682 218.825 506.457 217.776 506.958 216.546C507.482 215.293 507.744 213.903 507.744 212.376C507.744 209.391 506.719 207.09 504.668 205.472C502.617 203.831 499.53 203.011 495.405 203.011H478.794V222.425H495.405ZM555.254 193.577H566.089V237.498H597.158V247H555.254V193.577ZM606.318 193.577H617.222V247H606.318V193.577ZM630.996 193.577H641.831L675.122 211.009V193.577H685.957V247H675.122V222.493L641.831 205.164V247H630.996V193.577ZM701.064 193.577H746.558V203.079H711.899V213.743H742.593V222.664H711.899V237.532H747.275V247H701.064V193.577Z" fill="#AD0003"/>
<path d="M331.309 105.577V100.577H326.309V105.577H331.309ZM342.144 105.577H347.144V100.577H342.144V105.577ZM342.144 133.229H337.144V145.134L345.644 136.798L342.144 133.229ZM370.342 105.577V100.577H368.299L366.841 102.007L370.342 105.577ZM384.219 105.577L387.698 109.168L396.565 100.577H384.219V105.577ZM357.9 131.075L354.421 127.484L350.879 130.916L354.262 134.505L357.9 131.075ZM384.219 159V164H395.802L387.857 155.571L384.219 159ZM369.795 159L366.2 162.475L367.674 164H369.795V159ZM350.107 138.629L353.703 135.154L350.229 131.56L346.634 135.032L350.107 138.629ZM342.144 146.319L338.67 142.723L337.144 144.197V146.319H342.144ZM342.144 159V164H347.144V159H342.144ZM331.309 159H326.309V164H331.309V159ZM331.309 110.577H342.144V100.577H331.309V110.577ZM337.144 105.577V133.229H347.144V105.577H337.144ZM345.644 136.798L373.843 109.147L366.841 102.007L338.643 129.659L345.644 136.798ZM370.342 110.577H384.219V100.577H370.342V110.577ZM380.74 101.986L354.421 127.484L361.38 134.666L387.698 109.168L380.74 101.986ZM354.262 134.505L380.58 162.429L387.857 155.571L361.539 127.646L354.262 134.505ZM384.219 154H369.795V164H384.219V154ZM373.39 155.525L353.703 135.154L346.512 142.104L366.2 162.475L373.39 155.525ZM346.634 135.032L338.67 142.723L345.617 149.916L353.581 142.226L346.634 135.032ZM337.144 146.319V159H347.144V146.319H337.144ZM342.144 154H331.309V164H342.144V154ZM336.309 159V105.577H326.309V159H336.309ZM407.769 105.577V100.577H404.593L403.243 103.452L407.769 105.577ZM419.253 105.577L423.754 103.4L422.389 100.577H419.253V105.577ZM445.093 159V164H453.065L449.594 156.823L445.093 159ZM433.711 159L429.195 161.146L430.551 164H433.711V159ZM429.438 150.011L433.954 147.864L432.598 145.011H429.438V150.011ZM398.232 150.011V145.011H395.029L393.69 147.921L398.232 150.011ZM394.097 159V164H397.3L398.639 161.09L394.097 159ZM382.681 159L378.155 156.875L374.809 164H382.681V159ZM425.166 141.09V146.09H433.084L429.681 138.941L425.166 141.09ZM413.613 116.822L418.128 114.673L413.552 105.062L409.077 114.72L413.613 116.822ZM402.368 141.09L397.832 138.988L394.541 146.09H402.368V141.09ZM407.769 110.577H419.253V100.577H407.769V110.577ZM414.752 107.754L440.592 161.177L449.594 156.823L423.754 103.4L414.752 107.754ZM445.093 154H433.711V164H445.093V154ZM438.227 156.854L433.954 147.864L424.923 152.157L429.195 161.146L438.227 156.854ZM429.438 145.011H398.232V155.011H429.438V145.011ZM393.69 147.921L389.554 156.91L398.639 161.09L402.775 152.101L393.69 147.921ZM394.097 154H382.681V164H394.097V154ZM387.206 161.125L412.294 107.703L403.243 103.452L378.155 156.875L387.206 161.125ZM429.681 138.941L418.128 114.673L409.099 118.971L420.651 143.239L429.681 138.941ZM409.077 114.72L397.832 138.988L406.905 143.192L418.15 118.924L409.077 114.72ZM402.368 146.09H425.166V136.09H402.368V146.09ZM453.33 105.577V100.577H448.33V105.577H453.33ZM464.165 105.577L466.484 101.148L465.395 100.577H464.165V105.577ZM497.456 123.009L495.137 127.438L502.456 131.271V123.009H497.456ZM497.456 105.577V100.577H492.456V105.577H497.456ZM508.291 105.577H513.291V100.577H508.291V105.577ZM508.291 159V164H513.291V159H508.291ZM497.456 159H492.456V164H497.456V159ZM497.456 134.493H502.456V131.459L499.765 130.058L497.456 134.493ZM464.165 117.164L466.474 112.729L459.165 108.925V117.164H464.165ZM464.165 159V164H469.165V159H464.165ZM453.33 159H448.33V164H453.33V159ZM453.33 110.577H464.165V100.577H453.33V110.577ZM461.846 110.007L495.137 127.438L499.775 118.579L466.484 101.148L461.846 110.007ZM502.456 123.009V105.577H492.456V123.009H502.456ZM497.456 110.577H508.291V100.577H497.456V110.577ZM503.291 105.577V159H513.291V105.577H503.291ZM508.291 154H497.456V164H508.291V154ZM502.456 159V134.493H492.456V159H502.456ZM499.765 130.058L466.474 112.729L461.856 121.599L495.147 138.928L499.765 130.058ZM459.165 117.164V159H469.165V117.164H459.165ZM464.165 154H453.33V164H464.165V154ZM458.33 159V105.577H448.33V159H458.33ZM525.894 143.106L528.352 138.753L524.283 136.455L521.716 140.359L525.894 143.106ZM531.772 146.08L529.727 150.643L529.759 150.657L529.79 150.67L531.772 146.08ZM537.993 148.302L536.613 153.107L536.636 153.114L536.66 153.121L537.993 148.302ZM544.727 149.669L544.053 154.623L544.06 154.624L544.727 149.669ZM560.483 149.532L561.378 154.452L561.402 154.447L561.426 154.443L560.483 149.532ZM565.986 147.789L568.28 152.232L568.293 152.225L568.306 152.218L565.986 147.789ZM569.097 145.123L564.894 142.415L564.872 142.448L564.851 142.482L569.097 145.123ZM567.661 137.193L564.782 141.281L564.802 141.295L564.821 141.308L567.661 137.193ZM555.493 135.792L556.045 140.761L556.079 140.758L556.113 140.753L555.493 135.792ZM550.503 136.407L549.833 131.452L549.824 131.453L550.503 136.407ZM545.547 137.057L546.107 142.025L546.137 142.022L546.167 142.018L545.547 137.057ZM534.062 136.407L532.709 141.22L532.722 141.224L534.062 136.407ZM528.218 133.639L525.27 137.678L525.283 137.687L525.296 137.696L528.218 133.639ZM523.262 118.224L518.454 116.85L518.444 116.885L518.434 116.921L523.262 118.224ZM525.176 114.122L521.027 111.332L521.021 111.34L521.016 111.349L525.176 114.122ZM528.594 110.465L531.725 114.363L531.744 114.347L531.763 114.332L528.594 110.465ZM533.618 107.525L531.706 102.905L531.697 102.909L531.687 102.913L533.618 107.525ZM540.454 105.611L541.326 110.535L541.343 110.532L541.36 110.529L540.454 105.611ZM556.519 105.304L555.956 110.272L555.979 110.275L556.002 110.277L556.519 105.304ZM563.56 106.397L562.532 111.291L562.542 111.293L563.56 106.397ZM570.19 108.141L568.655 112.899L568.679 112.907L568.702 112.914L570.19 108.141ZM576.104 110.362L580.498 112.748L583.068 108.014L578.155 105.803L576.104 110.362ZM571.353 119.112L569.341 123.69L573.552 125.54L575.747 121.498L571.353 119.112ZM566.499 117.301L564.937 122.05L564.965 122.06L564.993 122.069L566.499 117.301ZM555.186 114.874L554.565 119.835L554.596 119.839L554.627 119.843L555.186 114.874ZM541.65 115.147L540.56 110.268L540.547 110.271L541.65 115.147ZM537.07 116.822L539.579 121.147L539.611 121.129L539.643 121.11L537.07 116.822ZM534.678 119.078L530.279 116.701L530.267 116.722L530.256 116.744L534.678 119.078ZM536.182 125.47L533.275 129.538L533.297 129.554L533.319 129.569L536.182 125.47ZM546.812 126.734L547.331 131.707L547.363 131.704L547.396 131.7L546.812 126.734ZM551.665 126.153L551.069 121.189L551.061 121.19L551.665 126.153ZM556.86 125.606L557.313 130.586L557.342 130.583L557.37 130.58L556.86 125.606ZM570.361 126.393L568.958 131.192L568.97 131.195L570.361 126.393ZM576.479 129.435L573.343 133.328L573.359 133.342L573.376 133.355L576.479 129.435ZM580.205 134.186L575.648 136.242L575.652 136.253L575.657 136.263L580.205 134.186ZM579.316 148.644L575.018 146.089L575.015 146.095L575.011 146.101L579.316 148.644ZM573.232 154.728L575.886 158.965L575.896 158.959L573.232 154.728ZM563.73 158.487L564.837 163.363L564.851 163.36L564.866 163.357L563.73 158.487ZM542.505 159.171L543.173 154.216L543.154 154.213L543.135 154.211L542.505 159.171ZM534.233 157.599L532.932 162.426L532.957 162.433L532.981 162.439L534.233 157.599ZM526.714 155.104L524.803 159.724L524.83 159.735L524.857 159.746L526.714 155.104ZM520.117 151.891L515.94 149.143L513.018 153.586L517.631 156.229L520.117 151.891ZM523.435 147.46C525.503 148.628 527.601 149.689 529.727 150.643L533.818 141.518C531.98 140.694 530.158 139.772 528.352 138.753L523.435 147.46ZM529.79 150.67C531.995 151.623 534.27 152.435 536.613 153.107L539.374 143.496C537.432 142.939 535.56 142.269 533.755 141.49L529.79 150.67ZM536.66 153.121C539.032 153.777 541.498 154.276 544.053 154.623L545.4 144.715C543.261 144.424 541.238 144.011 539.326 143.483L536.66 153.121ZM544.06 154.624C546.674 154.976 549.416 155.147 552.28 155.147V145.147C549.812 145.147 547.519 145 545.394 144.714L544.06 154.624ZM552.28 155.147C555.684 155.147 558.736 154.932 561.378 154.452L559.589 144.613C557.719 144.953 555.302 145.147 552.28 145.147V155.147ZM561.426 154.443C563.962 153.956 566.298 153.255 568.28 152.232L563.693 143.346C562.849 143.782 561.516 144.243 559.541 144.622L561.426 154.443ZM568.306 152.218C570.271 151.189 572.099 149.763 573.342 147.765L564.851 142.482C564.819 142.534 564.573 142.885 563.666 143.36L568.306 152.218ZM573.3 147.832C574.475 146.007 575.088 143.952 575.088 141.773H565.088C565.088 142.01 565.04 142.188 564.894 142.415L573.3 147.832ZM575.088 141.773C575.088 138.164 573.447 135.112 570.501 133.078L564.821 141.308C564.947 141.395 565.012 141.459 565.04 141.489C565.066 141.518 565.068 141.526 565.063 141.517C565.058 141.507 565.061 141.509 565.067 141.535C565.074 141.564 565.088 141.638 565.088 141.773H575.088ZM570.54 133.105C567.67 131.085 563.929 130.484 560.176 130.484V140.484C563.167 140.484 564.416 141.024 564.782 141.281L570.54 133.105ZM560.176 130.484C558.465 130.484 556.696 130.603 554.873 130.831L556.113 140.753C557.572 140.571 558.924 140.484 560.176 140.484V130.484ZM554.941 130.823C553.26 131.009 551.557 131.219 549.833 131.452L551.173 141.362C552.821 141.139 554.445 140.939 556.045 140.761L554.941 130.823ZM549.824 131.453C548.18 131.679 546.548 131.893 544.927 132.095L546.167 142.018C547.827 141.81 549.499 141.591 551.182 141.361L549.824 131.453ZM544.987 132.088C543.531 132.252 542.192 132.33 540.967 132.33V142.33C542.612 142.33 544.327 142.226 546.107 142.025L544.987 132.088ZM540.967 132.33C539.008 132.33 537.159 132.079 535.403 131.59L532.722 141.224C535.387 141.966 538.141 142.33 540.967 142.33V132.33ZM535.416 131.594C533.747 131.124 532.338 130.444 531.139 129.581L525.296 137.696C527.516 139.294 530.003 140.46 532.709 141.22L535.416 131.594ZM531.165 129.6C530.081 128.809 529.229 127.837 528.578 126.638L519.791 131.411C521.145 133.904 522.982 136.008 525.27 137.678L531.165 129.6ZM528.578 126.638C528.037 125.641 527.681 124.335 527.681 122.564H517.681C517.681 125.716 518.327 128.716 519.791 131.411L528.578 126.638ZM527.681 122.564C527.681 121.555 527.814 120.545 528.089 119.526L518.434 116.921C517.935 118.773 517.681 120.658 517.681 122.564H527.681ZM528.069 119.597C528.331 118.681 528.744 117.784 529.336 116.896L521.016 111.349C519.876 113.058 519.013 114.895 518.454 116.85L528.069 119.597ZM529.325 116.912C529.901 116.056 530.682 115.201 531.725 114.363L525.462 106.567C523.726 107.962 522.228 109.545 521.027 111.332L529.325 116.912ZM531.763 114.332C532.718 113.549 533.957 112.804 535.549 112.138L531.687 102.913C529.36 103.888 527.25 105.102 525.424 106.598L531.763 114.332ZM535.53 112.145C537.114 111.49 539.033 110.941 541.326 110.535L539.583 100.688C536.726 101.194 534.087 101.92 531.706 102.905L535.53 112.145ZM541.36 110.529C543.595 110.117 546.234 109.894 549.307 109.894V99.8936C545.771 99.8936 542.508 100.149 539.548 100.694L541.36 110.529ZM549.307 109.894C551.508 109.894 553.725 110.019 555.956 110.272L557.081 100.335C554.482 100.041 551.89 99.8936 549.307 99.8936V109.894ZM556.002 110.277C558.253 110.511 560.429 110.849 562.532 111.291L564.587 101.504C562.132 100.989 559.614 100.598 557.035 100.33L556.002 110.277ZM562.542 111.293C564.678 111.737 566.715 112.273 568.655 112.899L571.725 103.382C569.427 102.641 567.044 102.015 564.577 101.502L562.542 111.293ZM568.702 112.914C570.65 113.521 572.431 114.193 574.052 114.922L578.155 105.803C576.13 104.891 573.969 104.082 571.679 103.367L568.702 112.914ZM571.709 107.976L566.958 116.726L575.747 121.498L580.498 112.748L571.709 107.976ZM573.364 114.535C571.679 113.794 569.891 113.128 568.005 112.533L564.993 122.069C566.571 122.567 568.018 123.109 569.341 123.69L573.364 114.535ZM568.061 112.551C566.155 111.924 564.175 111.389 562.124 110.945L560.005 120.717C561.737 121.093 563.38 121.538 564.937 122.05L568.061 112.551ZM562.124 110.945C560.059 110.497 557.931 110.151 555.744 109.905L554.627 119.843C556.496 120.053 558.288 120.345 560.005 120.717L562.124 110.945ZM555.806 109.913C553.587 109.635 551.329 109.498 549.033 109.498V119.498C550.93 119.498 552.773 119.611 554.565 119.835L555.806 109.913ZM549.033 109.498C545.845 109.498 542.985 109.726 540.56 110.268L542.741 120.027C544.189 119.703 546.251 119.498 549.033 119.498V109.498ZM540.547 110.271C538.338 110.77 536.254 111.481 534.498 112.535L539.643 121.11C540.165 120.796 541.135 120.39 542.753 120.024L540.547 110.271ZM534.562 112.497C532.912 113.454 531.308 114.797 530.279 116.701L539.076 121.456C539.017 121.565 538.982 121.582 539.048 121.52C539.117 121.454 539.277 121.322 539.579 121.147L534.562 112.497ZM530.256 116.744C529.493 118.189 529.028 119.804 529.028 121.539H539.028C539.028 121.574 539.023 121.592 539.025 121.584C539.028 121.574 539.044 121.517 539.1 121.412L530.256 116.744ZM529.028 121.539C529.028 124.938 530.688 127.69 533.275 129.538L539.088 121.401C538.978 121.323 538.928 121.272 538.916 121.258C538.905 121.246 538.924 121.265 538.952 121.316C538.98 121.368 539.003 121.427 539.017 121.483C539.03 121.537 539.028 121.56 539.028 121.539H529.028ZM533.319 129.569C535.992 131.436 539.406 131.974 542.744 131.974V121.974C540.203 121.974 539.243 121.509 539.045 121.371L533.319 129.569ZM542.744 131.974C544.144 131.974 545.679 131.88 547.331 131.707L546.292 121.761C544.89 121.908 543.714 121.974 542.744 121.974V131.974ZM547.396 131.7C548.952 131.517 550.577 131.323 552.269 131.117L551.061 121.19C549.381 121.394 547.77 121.587 546.227 121.769L547.396 131.7ZM552.261 131.118C553.921 130.918 555.605 130.741 557.313 130.586L556.408 120.627C554.606 120.791 552.827 120.978 551.069 121.189L552.261 131.118ZM557.37 130.58C558.991 130.414 560.54 130.333 562.021 130.333V120.333C560.176 120.333 558.285 120.434 556.35 120.633L557.37 130.58ZM562.021 130.333C564.804 130.333 567.095 130.647 568.958 131.192L571.765 121.594C568.797 120.726 565.528 120.333 562.021 120.333V130.333ZM568.97 131.195C570.899 131.754 572.312 132.498 573.343 133.328L579.616 125.541C577.366 123.728 574.7 122.444 571.753 121.59L568.97 131.195ZM573.376 133.355C574.403 134.168 575.14 135.118 575.648 136.242L584.763 132.129C583.584 129.516 581.837 127.299 579.583 125.514L573.376 133.355ZM575.657 136.263C576.165 137.374 576.47 138.725 576.47 140.406H586.47C586.47 137.484 585.932 134.688 584.753 132.108L575.657 136.263ZM576.47 140.406C576.47 142.671 575.951 144.519 575.018 146.089L583.615 151.198C585.552 147.938 586.47 144.294 586.47 140.406H576.47ZM575.011 146.101C574.051 147.727 572.623 149.203 570.569 150.496L575.896 158.959C579.128 156.925 581.756 154.346 583.622 151.186L575.011 146.101ZM570.579 150.49C568.521 151.778 565.893 152.849 562.595 153.618L564.866 163.357C568.997 162.394 572.703 160.958 575.886 158.965L570.579 150.49ZM562.624 153.611C559.335 154.358 555.578 154.752 551.323 154.752V164.752C556.183 164.752 560.697 164.303 564.837 163.363L562.624 153.611ZM551.323 154.752C548.531 154.752 545.815 154.572 543.173 154.216L541.836 164.126C544.937 164.544 548.1 164.752 551.323 164.752V154.752ZM543.135 154.211C540.461 153.871 537.912 153.386 535.485 152.758L532.981 162.439C535.841 163.179 538.807 163.741 541.875 164.131L543.135 154.211ZM535.535 152.771C533.093 152.113 530.773 151.342 528.571 150.461L524.857 159.746C527.44 160.779 530.133 161.672 532.932 162.426L535.535 152.771ZM528.624 150.483C526.433 149.577 524.429 148.599 522.603 147.552L517.631 156.229C519.862 157.507 522.255 158.67 524.803 159.724L528.624 150.483ZM524.295 154.638L530.071 145.854L521.716 140.359L515.94 149.143L524.295 154.638ZM611.616 105.577V100.577H608.44L607.09 103.452L611.616 105.577ZM623.101 105.577L627.602 103.4L626.236 100.577H623.101V105.577ZM648.94 159V164H656.913L653.442 156.823L648.94 159ZM637.559 159L633.043 161.146L634.399 164H637.559V159ZM633.286 150.011L637.802 147.864L636.446 145.011H633.286V150.011ZM602.08 150.011V145.011H598.877L597.538 147.921L602.08 150.011ZM597.944 159V164H601.148L602.487 161.09L597.944 159ZM586.528 159L582.003 156.875L578.656 164H586.528V159ZM629.014 141.09V146.09H636.932L633.528 138.941L629.014 141.09ZM617.461 116.822L621.975 114.673L617.4 105.062L612.924 114.72L617.461 116.822ZM606.216 141.09L601.679 138.988L598.388 146.09H606.216V141.09ZM611.616 110.577H623.101V100.577H611.616V110.577ZM618.599 107.754L644.439 161.177L653.442 156.823L627.602 103.4L618.599 107.754ZM648.94 154H637.559V164H648.94V154ZM642.074 156.854L637.802 147.864L628.77 152.157L633.043 161.146L642.074 156.854ZM633.286 145.011H602.08V155.011H633.286V145.011ZM597.538 147.921L593.402 156.91L602.487 161.09L606.622 152.101L597.538 147.921ZM597.944 154H586.528V164H597.944V154ZM591.054 161.125L616.142 107.703L607.09 103.452L582.003 156.875L591.054 161.125ZM633.528 138.941L621.975 114.673L612.946 118.971L624.499 143.239L633.528 138.941ZM612.924 114.72L601.679 138.988L610.752 143.192L621.998 118.924L612.924 114.72ZM606.216 146.09H629.014V136.09H606.216V146.09ZM655.879 105.577V100.577H650.879V105.577H655.879ZM666.782 105.577H671.782V100.577H666.782V105.577ZM666.782 159V164H671.782V159H666.782ZM655.879 159H650.879V164H655.879V159ZM655.879 110.577H666.782V100.577H655.879V110.577ZM661.782 105.577V159H671.782V105.577H661.782ZM666.782 154H655.879V164H666.782V154ZM660.879 159V105.577H650.879V159H660.879ZM278.364 231.106L280.823 226.753L276.754 224.455L274.187 228.359L278.364 231.106ZM284.243 234.08L282.198 238.643L282.229 238.657L282.261 238.67L284.243 234.08ZM290.464 236.302L289.084 241.107L289.107 241.114L289.131 241.121L290.464 236.302ZM297.197 237.669L296.524 242.623L296.53 242.624L297.197 237.669ZM312.954 237.532L313.849 242.452L313.873 242.447L313.896 242.443L312.954 237.532ZM318.457 235.789L320.75 240.232L320.764 240.225L320.777 240.218L318.457 235.789ZM321.567 233.123L317.365 230.415L317.343 230.448L317.322 230.482L321.567 233.123ZM320.132 225.193L317.253 229.281L317.272 229.295L317.292 229.308L320.132 225.193ZM307.964 223.792L308.516 228.761L308.55 228.758L308.584 228.753L307.964 223.792ZM302.974 224.407L302.304 219.452L302.295 219.453L302.974 224.407ZM298.018 225.057L298.577 230.025L298.608 230.022L298.638 230.018L298.018 225.057ZM286.533 224.407L285.179 229.22L285.192 229.224L286.533 224.407ZM280.688 221.639L277.741 225.678L277.754 225.687L277.767 225.696L280.688 221.639ZM275.732 206.224L270.925 204.85L270.915 204.885L270.905 204.921L275.732 206.224ZM277.646 202.122L273.497 199.332L273.492 199.34L273.486 199.349L277.646 202.122ZM281.064 198.465L284.196 202.363L284.215 202.347L284.234 202.332L281.064 198.465ZM286.089 195.525L284.177 190.905L284.168 190.909L284.158 190.913L286.089 195.525ZM292.925 193.611L293.796 198.535L293.813 198.532L293.831 198.529L292.925 193.611ZM308.989 193.304L308.427 198.272L308.45 198.275L308.473 198.277L308.989 193.304ZM316.03 194.397L315.003 199.291L315.012 199.293L316.03 194.397ZM322.661 196.141L321.126 200.899L321.149 200.907L321.173 200.914L322.661 196.141ZM328.574 198.362L332.968 200.748L335.539 196.014L330.626 193.803L328.574 198.362ZM323.823 207.112L321.812 211.69L326.023 213.54L328.217 209.498L323.823 207.112ZM318.97 205.301L317.407 210.05L317.436 210.06L317.464 210.069L318.97 205.301ZM307.656 202.874L307.036 207.835L307.067 207.839L307.098 207.843L307.656 202.874ZM294.121 203.147L293.03 198.268L293.018 198.271L294.121 203.147ZM289.541 204.822L292.05 209.147L292.082 209.129L292.113 209.11L289.541 204.822ZM287.148 207.078L282.75 204.701L282.738 204.722L282.727 204.744L287.148 207.078ZM288.652 213.47L285.746 217.538L285.768 217.554L285.789 217.569L288.652 213.47ZM299.282 214.734L299.802 219.707L299.834 219.704L299.866 219.7L299.282 214.734ZM304.136 214.153L303.54 209.189L303.532 209.19L304.136 214.153ZM309.331 213.606L309.784 218.586L309.812 218.583L309.841 218.58L309.331 213.606ZM322.832 214.393L321.429 219.192L321.441 219.195L322.832 214.393ZM328.95 217.435L325.814 221.328L325.83 221.342L325.847 221.355L328.95 217.435ZM332.676 222.186L328.118 224.242L328.123 224.253L328.128 224.263L332.676 222.186ZM331.787 236.644L327.489 234.089L327.485 234.095L327.482 234.101L331.787 236.644ZM325.703 242.728L328.356 246.965L328.366 246.959L325.703 242.728ZM316.201 246.487L317.308 251.363L317.322 251.36L317.336 251.357L316.201 246.487ZM294.976 247.171L295.644 242.216L295.625 242.213L295.605 242.211L294.976 247.171ZM286.704 245.599L285.403 250.426L285.427 250.433L285.452 250.439L286.704 245.599ZM279.185 243.104L277.274 247.724L277.301 247.735L277.328 247.746L279.185 243.104ZM272.588 239.891L268.41 237.143L265.489 241.586L270.102 244.229L272.588 239.891ZM275.906 235.46C277.974 236.628 280.071 237.689 282.198 238.643L286.288 229.518C284.45 228.694 282.628 227.772 280.823 226.753L275.906 235.46ZM282.261 238.67C284.466 239.623 286.741 240.435 289.084 241.107L291.844 231.496C289.903 230.939 288.031 230.269 286.225 229.49L282.261 238.67ZM289.131 241.121C291.503 241.777 293.969 242.276 296.524 242.623L297.871 232.715C295.732 232.424 293.709 232.011 291.797 231.483L289.131 241.121ZM296.53 242.624C299.145 242.976 301.887 243.147 304.751 243.147V233.147C302.283 233.147 299.99 233 297.864 232.714L296.53 242.624ZM304.751 243.147C308.155 243.147 311.207 242.932 313.849 242.452L312.06 232.613C310.19 232.953 307.773 233.147 304.751 233.147V243.147ZM313.896 242.443C316.433 241.956 318.769 241.255 320.75 240.232L316.164 231.346C315.32 231.782 313.987 232.243 312.012 232.622L313.896 242.443ZM320.777 240.218C322.741 239.189 324.569 237.763 325.813 235.765L317.322 230.482C317.289 230.534 317.044 230.885 316.137 231.36L320.777 240.218ZM325.77 235.832C326.946 234.007 327.559 231.952 327.559 229.773H317.559C317.559 230.01 317.511 230.188 317.365 230.415L325.77 235.832ZM327.559 229.773C327.559 226.164 325.918 223.112 322.972 221.078L317.292 229.308C317.418 229.395 317.483 229.459 317.51 229.489C317.536 229.518 317.539 229.526 317.534 229.517C317.529 229.507 317.532 229.509 317.538 229.535C317.545 229.564 317.559 229.638 317.559 229.773H327.559ZM323.011 221.105C320.141 219.085 316.4 218.484 312.646 218.484V228.484C315.638 228.484 316.887 229.024 317.253 229.281L323.011 221.105ZM312.646 218.484C310.936 218.484 309.167 218.603 307.344 218.831L308.584 228.753C310.042 228.571 311.395 228.484 312.646 228.484V218.484ZM307.412 218.823C305.731 219.009 304.028 219.219 302.304 219.452L303.643 229.362C305.292 229.139 306.916 228.939 308.516 228.761L307.412 218.823ZM302.295 219.453C300.651 219.679 299.018 219.893 297.397 220.095L298.638 230.018C300.298 229.81 301.97 229.591 303.652 229.361L302.295 219.453ZM297.458 220.088C296.002 220.252 294.663 220.33 293.438 220.33V230.33C295.083 230.33 296.798 230.226 298.577 230.025L297.458 220.088ZM293.438 220.33C291.479 220.33 289.629 220.079 287.874 219.59L285.192 229.224C287.858 229.966 290.611 230.33 293.438 230.33V220.33ZM287.887 219.594C286.218 219.124 284.808 218.444 283.61 217.581L277.767 225.696C279.987 227.294 282.474 228.46 285.179 229.22L287.887 219.594ZM283.636 217.6C282.552 216.809 281.7 215.837 281.049 214.638L272.262 219.411C273.616 221.904 275.453 224.008 277.741 225.678L283.636 217.6ZM281.049 214.638C280.508 213.641 280.151 212.335 280.151 210.564H270.151C270.151 213.716 270.798 216.716 272.262 219.411L281.049 214.638ZM280.151 210.564C280.151 209.555 280.285 208.545 280.56 207.526L270.905 204.921C270.405 206.773 270.151 208.658 270.151 210.564H280.151ZM280.54 207.597C280.802 206.681 281.215 205.784 281.807 204.896L273.486 199.349C272.347 201.058 271.483 202.895 270.925 204.85L280.54 207.597ZM281.796 204.912C282.372 204.056 283.153 203.201 284.196 202.363L277.933 194.567C276.196 195.962 274.699 197.545 273.497 199.332L281.796 204.912ZM284.234 202.332C285.189 201.549 286.428 200.804 288.02 200.138L284.158 190.913C281.831 191.888 279.72 193.102 277.895 194.598L284.234 202.332ZM288.001 200.145C289.585 199.49 291.504 198.941 293.796 198.535L292.053 188.688C289.196 189.194 286.558 189.92 284.177 190.905L288.001 200.145ZM293.831 198.529C296.066 198.117 298.705 197.894 301.777 197.894V187.894C298.241 187.894 294.979 188.149 292.019 188.694L293.831 198.529ZM301.777 197.894C303.979 197.894 306.195 198.019 308.427 198.272L309.552 188.335C306.953 188.041 304.361 187.894 301.777 187.894V197.894ZM308.473 198.277C310.724 198.511 312.9 198.849 315.003 199.291L317.058 189.504C314.603 188.989 312.085 188.598 309.505 188.33L308.473 198.277ZM315.012 199.293C317.149 199.737 319.186 200.273 321.126 200.899L324.196 191.382C321.898 190.641 319.515 190.015 317.048 189.502L315.012 199.293ZM321.173 200.914C323.121 201.521 324.902 202.193 326.522 202.922L330.626 193.803C328.601 192.891 326.44 192.082 324.15 191.367L321.173 200.914ZM324.18 195.976L319.429 204.726L328.217 209.498L332.968 200.748L324.18 195.976ZM325.835 202.535C324.15 201.794 322.361 201.128 320.475 200.533L317.464 210.069C319.042 210.567 320.489 211.109 321.812 211.69L325.835 202.535ZM320.532 200.551C318.626 199.924 316.646 199.389 314.595 198.945L312.475 208.717C314.207 209.093 315.85 209.538 317.407 210.05L320.532 200.551ZM314.595 198.945C312.529 198.497 310.402 198.151 308.215 197.905L307.098 207.843C308.967 208.053 310.759 208.345 312.475 208.717L314.595 198.945ZM308.276 197.913C306.058 197.635 303.8 197.498 301.504 197.498V207.498C303.401 207.498 305.244 207.611 307.036 207.835L308.276 197.913ZM301.504 197.498C298.316 197.498 295.456 197.726 293.03 198.268L295.212 208.027C296.66 207.703 298.722 207.498 301.504 207.498V197.498ZM293.018 198.271C290.809 198.77 288.725 199.481 286.969 200.535L292.113 209.11C292.636 208.796 293.605 208.39 295.224 208.024L293.018 198.271ZM287.032 200.497C285.383 201.454 283.779 202.797 282.75 204.701L291.547 209.456C291.488 209.565 291.453 209.582 291.518 209.52C291.588 209.454 291.748 209.322 292.05 209.147L287.032 200.497ZM282.727 204.744C281.964 206.189 281.499 207.804 281.499 209.539H291.499C291.499 209.574 291.494 209.592 291.496 209.584C291.499 209.574 291.515 209.517 291.57 209.412L282.727 204.744ZM281.499 209.539C281.499 212.938 283.159 215.69 285.746 217.538L291.559 209.401C291.449 209.323 291.399 209.272 291.386 209.258C291.375 209.246 291.395 209.265 291.422 209.316C291.451 209.368 291.474 209.427 291.488 209.483C291.501 209.537 291.499 209.56 291.499 209.539H281.499ZM285.789 217.569C288.462 219.436 291.877 219.974 295.215 219.974V209.974C292.674 209.974 291.714 209.509 291.515 209.371L285.789 217.569ZM295.215 219.974C296.615 219.974 298.15 219.88 299.802 219.707L298.763 209.761C297.361 209.908 296.184 209.974 295.215 209.974V219.974ZM299.866 219.7C301.423 219.517 303.047 219.323 304.739 219.117L303.532 209.19C301.852 209.394 300.24 209.587 298.698 209.769L299.866 219.7ZM304.731 219.118C306.392 218.918 308.076 218.741 309.784 218.586L308.878 208.627C307.077 208.791 305.298 208.978 303.54 209.189L304.731 219.118ZM309.841 218.58C311.461 218.414 313.011 218.333 314.492 218.333V208.333C312.646 208.333 310.755 208.434 308.821 208.633L309.841 218.58ZM314.492 218.333C317.275 218.333 319.566 218.647 321.429 219.192L324.236 209.594C321.267 208.726 317.999 208.333 314.492 208.333V218.333ZM321.441 219.195C323.37 219.754 324.783 220.498 325.814 221.328L332.087 213.541C329.836 211.728 327.17 210.444 324.223 209.59L321.441 219.195ZM325.847 221.355C326.874 222.168 327.611 223.118 328.118 224.242L337.233 220.129C336.054 217.516 334.307 215.299 332.054 213.514L325.847 221.355ZM328.128 224.263C328.635 225.374 328.94 226.725 328.94 228.406H338.94C338.94 225.484 338.402 222.688 337.224 220.108L328.128 224.263ZM328.94 228.406C328.94 230.671 328.422 232.519 327.489 234.089L336.085 239.198C338.023 235.938 338.94 232.294 338.94 228.406H328.94ZM327.482 234.101C326.522 235.727 325.094 237.203 323.04 238.496L328.366 246.959C331.599 244.925 334.227 242.346 336.093 239.186L327.482 234.101ZM323.05 238.49C320.992 239.778 318.363 240.849 315.066 241.618L317.336 251.357C321.467 250.394 325.174 248.958 328.356 246.965L323.05 238.49ZM315.094 241.611C311.806 242.358 308.049 242.752 303.794 242.752V252.752C308.653 252.752 313.168 252.303 317.308 251.363L315.094 241.611ZM303.794 242.752C301.001 242.752 298.285 242.572 295.644 242.216L294.307 252.126C297.408 252.544 300.571 252.752 303.794 252.752V242.752ZM295.605 242.211C292.932 241.871 290.383 241.386 287.956 240.758L285.452 250.439C288.312 251.179 291.277 251.741 294.346 252.131L295.605 242.211ZM288.005 240.771C285.564 240.113 283.243 239.342 281.042 238.461L277.328 247.746C279.911 248.779 282.604 249.672 285.403 250.426L288.005 240.771ZM281.095 238.483C278.904 237.577 276.899 236.599 275.074 235.552L270.102 244.229C272.332 245.507 274.725 246.67 277.274 247.724L281.095 238.483ZM276.766 242.638L282.542 233.854L274.187 228.359L268.41 237.143L276.766 242.638ZM361.968 203.079H366.968V198.079H361.968V203.079ZM342.246 203.079H337.246V208.079H342.246V203.079ZM342.246 193.577V188.577H337.246V193.577H342.246ZM392.524 193.577H397.524V188.577H392.524V193.577ZM392.524 203.079V208.079H397.524V203.079H392.524ZM372.803 203.079V198.079H367.803V203.079H372.803ZM372.803 247V252H377.803V247H372.803ZM361.968 247H356.968V252H361.968V247ZM361.968 198.079H342.246V208.079H361.968V198.079ZM347.246 203.079V193.577H337.246V203.079H347.246ZM342.246 198.577H392.524V188.577H342.246V198.577ZM387.524 193.577V203.079H397.524V193.577H387.524ZM392.524 198.079H372.803V208.079H392.524V198.079ZM367.803 203.079V247H377.803V203.079H367.803ZM372.803 242H361.968V252H372.803V242ZM366.968 247V203.079H356.968V247H366.968ZM422.329 193.577V188.577H419.153L417.803 191.452L422.329 193.577ZM433.813 193.577L438.315 191.4L436.949 188.577H433.813V193.577ZM459.653 247V252H467.626L464.154 244.823L459.653 247ZM448.271 247L443.756 249.146L445.112 252H448.271V247ZM443.999 238.011L448.515 235.864L447.159 233.011H443.999V238.011ZM412.793 238.011V233.011H409.59L408.251 235.921L412.793 238.011ZM408.657 247V252H411.861L413.2 249.09L408.657 247ZM397.241 247L392.715 244.875L389.369 252H397.241V247ZM439.727 229.09V234.09H447.645L444.241 226.941L439.727 229.09ZM428.174 204.822L432.688 202.673L428.113 193.062L423.637 202.72L428.174 204.822ZM416.929 229.09L412.392 226.988L409.101 234.09H416.929V229.09ZM422.329 198.577H433.813V188.577H422.329V198.577ZM429.312 195.754L455.152 249.177L464.154 244.823L438.315 191.4L429.312 195.754ZM459.653 242H448.271V252H459.653V242ZM452.787 244.854L448.515 235.864L439.483 240.157L443.756 249.146L452.787 244.854ZM443.999 233.011H412.793V243.011H443.999V233.011ZM408.251 235.921L404.115 244.91L413.2 249.09L417.335 240.101L408.251 235.921ZM408.657 242H397.241V252H408.657V242ZM401.767 249.125L426.855 195.703L417.803 191.452L392.715 244.875L401.767 249.125ZM444.241 226.941L432.688 202.673L423.659 206.971L435.212 231.239L444.241 226.941ZM423.637 202.72L412.392 226.988L421.465 231.192L432.71 206.924L423.637 202.72ZM416.929 234.09H439.727V224.09H416.929V234.09ZM467.959 193.577V188.577H462.959V193.577H467.959ZM505.796 194.876L504.413 199.681L504.43 199.686L504.446 199.69L505.796 194.876ZM517.69 204.48L513.067 206.384L513.075 206.404L513.083 206.423L517.69 204.48ZM518.442 218.05L523.27 219.35L523.273 219.342L523.275 219.334L518.442 218.05ZM516.221 222.972L512.06 220.198L512.046 220.22L512.031 220.242L516.221 222.972ZM512.495 227.005L515.552 230.961L515.571 230.947L515.589 230.932L512.495 227.005ZM507.197 229.91L505.413 225.239L499.508 227.495L503.063 232.722L507.197 229.91ZM518.818 247V252H528.265L522.953 244.188L518.818 247ZM505.557 247L501.388 249.76L502.871 252H505.557V247ZM495.508 231.824L499.677 229.064L498.194 226.824H495.508V231.824ZM495.2 231.824L495.19 236.824H495.2V231.824ZM478.794 231.79L478.804 226.79L473.794 226.78V231.79H478.794ZM478.794 247V252H483.794V247H478.794ZM467.959 247H462.959V252H467.959V247ZM500.771 221.707L499.296 216.93L499.286 216.933L499.276 216.936L500.771 221.707ZM504.634 219.69L501.449 215.836L501.429 215.853L501.408 215.87L504.634 219.69ZM506.958 216.546L502.345 214.617L502.336 214.638L502.328 214.659L506.958 216.546ZM504.668 205.472L501.544 209.376L501.558 209.387L501.571 209.397L504.668 205.472ZM478.794 203.011V198.011H473.794V203.011H478.794ZM478.794 222.425H473.794V227.425H478.794V222.425ZM467.959 198.577H495.132V188.577H467.959V198.577ZM495.132 198.577C498.902 198.577 501.969 198.977 504.413 199.681L507.179 190.071C503.607 189.043 499.565 188.577 495.132 188.577V198.577ZM504.446 199.69C506.935 200.388 508.774 201.343 510.12 202.441L516.443 194.694C513.823 192.556 510.673 191.05 507.145 190.062L504.446 199.69ZM510.12 202.441C511.471 203.544 512.432 204.842 513.067 206.384L522.314 202.577C521.035 199.47 519.056 196.827 516.443 194.694L510.12 202.441ZM513.083 206.423C513.765 208.039 514.16 209.995 514.16 212.376H524.16C524.16 208.878 523.576 205.57 522.298 202.538L513.083 206.423ZM514.16 212.376C514.16 213.953 513.97 215.41 513.61 216.765L523.275 219.334C523.871 217.089 524.16 214.764 524.16 212.376H514.16ZM513.614 216.75C513.274 218.013 512.756 219.154 512.06 220.198L520.381 225.745C521.69 223.781 522.653 221.641 523.27 219.35L513.614 216.75ZM512.031 220.242C511.368 221.26 510.505 222.207 509.401 223.077L515.589 230.932C517.493 229.433 519.114 227.691 520.41 225.701L512.031 220.242ZM509.438 223.048C508.372 223.872 507.048 224.615 505.413 225.239L508.982 234.581C511.403 233.656 513.611 232.462 515.552 230.961L509.438 223.048ZM503.063 232.722L514.684 249.812L522.953 244.188L511.332 227.099L503.063 232.722ZM518.818 242H505.557V252H518.818V242ZM509.726 244.24L499.677 229.064L491.339 234.585L501.388 249.76L509.726 244.24ZM495.508 226.824H495.2V236.824H495.508V226.824ZM495.211 226.824L478.804 226.79L478.784 236.79L495.19 236.824L495.211 226.824ZM473.794 231.79V247H483.794V231.79H473.794ZM478.794 242H467.959V252H478.794V242ZM472.959 247V193.577H462.959V247H472.959ZM495.405 227.425C497.828 227.425 500.142 227.144 502.267 226.478L499.276 216.936C498.347 217.227 497.084 217.425 495.405 217.425V227.425ZM502.247 226.484C504.307 225.848 506.226 224.89 507.86 223.511L501.408 215.87C500.991 216.222 500.334 216.609 499.296 216.93L502.247 226.484ZM507.818 223.545C509.488 222.166 510.768 220.447 511.588 218.432L502.328 214.659C502.146 215.106 501.876 215.483 501.449 215.836L507.818 223.545ZM511.571 218.475C512.38 216.539 512.744 214.483 512.744 212.376H502.744C502.744 213.322 502.584 214.046 502.345 214.617L511.571 218.475ZM512.744 212.376C512.744 208.107 511.199 204.255 507.765 201.546L501.571 209.397C502.239 209.924 502.744 210.675 502.744 212.376H512.744ZM507.791 201.567C504.473 198.913 500.056 198.011 495.405 198.011V208.011C499.003 208.011 500.761 208.749 501.544 209.376L507.791 201.567ZM495.405 198.011H478.794V208.011H495.405V198.011ZM473.794 203.011V222.425H483.794V203.011H473.794ZM478.794 227.425H495.405V217.425H478.794V227.425ZM555.254 193.577V188.577H550.254V193.577H555.254ZM566.089 193.577H571.089V188.577H566.089V193.577ZM566.089 237.498H561.089V242.498H566.089V237.498ZM597.158 237.498H602.158V232.498H597.158V237.498ZM597.158 247V252H602.158V247H597.158ZM555.254 247H550.254V252H555.254V247ZM555.254 198.577H566.089V188.577H555.254V198.577ZM561.089 193.577V237.498H571.089V193.577H561.089ZM566.089 242.498H597.158V232.498H566.089V242.498ZM592.158 237.498V247H602.158V237.498H592.158ZM597.158 242H555.254V252H597.158V242ZM560.254 247V193.577H550.254V247H560.254ZM606.318 193.577V188.577H601.318V193.577H606.318ZM617.222 193.577H622.222V188.577H617.222V193.577ZM617.222 247V252H622.222V247H617.222ZM606.318 247H601.318V252H606.318V247ZM606.318 198.577H617.222V188.577H606.318V198.577ZM612.222 193.577V247H622.222V193.577H612.222ZM617.222 242H606.318V252H617.222V242ZM611.318 247V193.577H601.318V247H611.318ZM630.996 193.577V188.577H625.996V193.577H630.996ZM641.831 193.577L644.15 189.148L643.061 188.577H641.831V193.577ZM675.122 211.009L672.803 215.438L680.122 219.271V211.009H675.122ZM675.122 193.577V188.577H670.122V193.577H675.122ZM685.957 193.577H690.957V188.577H685.957V193.577ZM685.957 247V252H690.957V247H685.957ZM675.122 247H670.122V252H675.122V247ZM675.122 222.493H680.122V219.459L677.431 218.058L675.122 222.493ZM641.831 205.164L644.14 200.729L636.831 196.925V205.164H641.831ZM641.831 247V252H646.831V247H641.831ZM630.996 247H625.996V252H630.996V247ZM630.996 198.577H641.831V188.577H630.996V198.577ZM639.512 198.007L672.803 215.438L677.441 206.579L644.15 189.148L639.512 198.007ZM680.122 211.009V193.577H670.122V211.009H680.122ZM675.122 198.577H685.957V188.577H675.122V198.577ZM680.957 193.577V247H690.957V193.577H680.957ZM685.957 242H675.122V252H685.957V242ZM680.122 247V222.493H670.122V247H680.122ZM677.431 218.058L644.14 200.729L639.522 209.599L672.813 226.928L677.431 218.058ZM636.831 205.164V247H646.831V205.164H636.831ZM641.831 242H630.996V252H641.831V242ZM635.996 247V193.577H625.996V247H635.996ZM701.064 193.577V188.577H696.064V193.577H701.064ZM746.558 193.577H751.558V188.577H746.558V193.577ZM746.558 203.079V208.079H751.558V203.079H746.558ZM711.899 203.079V198.079H706.899V203.079H711.899ZM711.899 213.743H706.899V218.743H711.899V213.743ZM742.593 213.743H747.593V208.743H742.593V213.743ZM742.593 222.664V227.664H747.593V222.664H742.593ZM711.899 222.664V217.664H706.899V222.664H711.899ZM711.899 237.532H706.899V242.532H711.899V237.532ZM747.275 237.532H752.275V232.532H747.275V237.532ZM747.275 247V252H752.275V247H747.275ZM701.064 247H696.064V252H701.064V247ZM701.064 198.577H746.558V188.577H701.064V198.577ZM741.558 193.577V203.079H751.558V193.577H741.558ZM746.558 198.079H711.899V208.079H746.558V198.079ZM706.899 203.079V213.743H716.899V203.079H706.899ZM711.899 218.743H742.593V208.743H711.899V218.743ZM737.593 213.743V222.664H747.593V213.743H737.593ZM742.593 217.664H711.899V227.664H742.593V217.664ZM706.899 222.664V237.532H716.899V222.664H706.899ZM711.899 242.532H747.275V232.532H711.899V242.532ZM742.275 237.532V247H752.275V237.532H742.275ZM747.275 242H701.064V252H747.275V242ZM706.064 247V193.577H696.064V247H706.064Z" fill="white" mask="url(#path-3-outside-1_103_2)"/>
</g>
<defs>
<filter id="filter0_d_103_2" x="126.528" y="4" width="766.943" height="310.106" filterUnits="userSpaceOnUse" color-interpolation-filters="sRGB">
<feFlood flood-opacity="0" result="BackgroundImageFix"/>
<feColorMatrix in="SourceAlpha" type="matrix" values="0 0 0 0 0 0 0 0 0 0 0 0 0 0 0 0 0 0 127 0" result="hardAlpha"/>
<feOffset dy="4"/>
<feGaussianBlur stdDeviation="2"/>
<feComposite in2="hardAlpha" operator="out"/>
<feColorMatrix type="matrix" values="0 0 0 0 0 0 0 0 0 0 0 0 0 0 0 0 0 0 0.25 0"/>
<feBlend mode="normal" in2="BackgroundImageFix" result="effect1_dropShadow_103_2"/>
<feBlend mode="normal" in="SourceGraphic" in2="effect1_dropShadow_103_2" result="shape"/>
</filter>
<clipPath id="clip0_103_2">
<rect width="1024" height="319" fill="white"/>
</clipPath>
</defs>
</svg>
