<svg width="1024" height="543" viewBox="0 0 1024 543" fill="none" xmlns="http://www.w3.org/2000/svg">
<g filter="url(#filter0_d_1_2)">
<path d="M512.5 20L650.686 106.847L898 133.062L736.09 212.951L750.751 316L512.5 278.527L274.249 316L288.911 212.951L127 133.062L374.314 106.847L512.5 20Z" fill="#FEDD6B"/>
<path d="M650.131 111.717L880.597 136.146L733.776 208.59L730.568 210.173L731.058 213.617L744.785 310.098L513.318 273.692L512.5 273.563L511.682 273.692L280.215 310.098L293.942 213.617L294.432 210.173L291.224 208.59L144.403 136.146L374.869 111.717L376.073 111.589L377.087 110.952L512.5 25.8474L647.913 110.952L648.927 111.589L650.131 111.717Z" stroke="#003F67" stroke-width="10"/>
</g>
<path d="M185.01 494.36V488.365H207.89V494.36H185.01ZM241.4 479.51V489.025C255.81 490.565 257.185 511.63 240.08 511.63V505.69C248.99 505.69 248.055 495.075 241.4 494.855C241.4 498.045 240.85 503.71 234.03 503.71C228.585 503.71 226.605 500.025 226.605 496.78C226.605 493.26 228.97 488.915 235.46 488.915V479.51H226.495V473.57H235.46V470.6H241.4V473.57H250.365V479.51H241.4ZM249.045 489.08V480.995H254.985V489.08H249.045ZM234.03 497.99C235.68 497.99 235.79 496.67 235.79 494.525C233.425 494.525 232.325 495.13 232.325 496.395C232.325 497.165 232.765 497.99 234.03 497.99ZM279.86 466.53H285.8V470.6H301.255V480.94H296.14V485.12C294.71 487.375 292.84 489.19 290.585 490.675C293.83 491.445 297.405 491.885 301.255 492.105L300.485 497.99C299.605 497.88 298.78 497.825 297.955 497.715V511.63H267.705V497.66L265.23 497.99L264.405 492.105C267.76 491.775 271.005 491.39 274.14 490.73L272.765 489.85L276.945 485.615C278.65 486.55 280.465 487.375 282.39 488.2C284.26 487.375 286.02 486.33 287.615 485.12H275.9C272.765 487.54 269.52 488.53 265.285 489.08L264.405 483.195C268.2 482.92 271.225 481.71 273.755 479.18H295.315V476.54H270.4V480.94H264.405V470.6H279.86V466.53ZM270.62 497.22H294.16C289.76 496.505 285.855 495.625 282.5 494.525C278.87 495.68 274.855 496.505 270.62 497.22ZM273.7 505.69H292.015V502.61H273.7V505.69ZM336.169 466.53H342.274L341.339 470.6H345.244V476.54H337.599V478.795H344.144V482.92H337.599V485.175H345.244V491.115H337.599V502.005C337.599 508.825 334.629 511.63 328.634 511.63V505.69C330.614 505.69 331.659 504.865 331.659 502.005V491.115H325.114L325.499 491.83L320.384 494.855L319.174 492.765V511.63H313.234V497.44C312.134 499.365 310.594 500.905 308.394 502.005V493.865C311.199 491.39 312.519 486.88 312.739 481.325H308.394V475.385H313.234V471.37H319.174V475.385H321.924V481.325H319.174V486.99L321.759 485.45L324.014 489.3V485.175H331.659V482.92H325.114V478.795H331.659V476.54H324.014V470.6H327.919L327.039 466.53H333.144L334.024 470.6H335.234L336.169 466.53ZM323.684 494.415L327.919 491.555L330.614 495.57L326.434 498.43L323.684 494.415ZM342.549 498.43L338.314 495.57L341.064 491.555L345.244 494.415L342.549 498.43ZM331.109 502.665L323.464 507.835L320.604 503.6L328.249 498.43L331.109 502.665ZM338.094 499.86L343.154 499.145C343.154 503.985 343.484 506.24 345.244 509.1L340.844 511.63C338.644 508.88 338.094 505.69 338.094 499.86ZM371.799 476.815C382.414 476.815 386.429 486.22 386.429 492.27C386.429 505.69 377.519 511.63 370.039 511.63V505.69C375.044 505.69 380.269 501.29 380.269 492.325C380.269 488.97 378.784 484.515 374.549 483.195C373.449 495.24 367.949 499.365 363.274 499.365C358.984 499.365 355.024 497.935 353.979 493.095C352.054 484.13 360.469 476.815 371.799 476.815ZM362.284 493.81C364.704 493.81 367.784 491.115 368.609 482.975C358.159 484.57 357.389 493.81 362.284 493.81ZM425.109 513.28L403.164 483.855V511.63H397.224V465.98L419.169 495.405V467.63H425.109V513.28ZM448.21 512.18C441.115 512.18 436.11 506.955 436.11 498.705C436.11 489.905 441.115 484.625 448.21 484.625C455.25 484.625 460.255 489.905 460.255 498.705C460.255 506.955 455.25 512.18 448.21 512.18ZM448.21 490.565C444.195 490.565 442.05 493.7 442.05 498.705C442.05 503.105 444.195 506.24 448.21 506.24C452.17 506.24 454.315 503.105 454.315 498.705C454.315 493.7 452.17 490.565 448.21 490.565ZM471.237 504.48H477.177V511.63H471.237V504.48ZM496.791 511.63H490.851V473.57H487.606V467.63H496.791V511.63ZM505.889 477.31V471.37C517.384 469.885 524.314 465.43 524.314 465.43C524.314 465.43 531.189 469.885 542.739 471.37V477.31C533.444 476.155 527.339 473.68 524.314 472.195C521.234 473.68 515.129 476.155 505.889 477.31ZM541.089 493.81H528.934V505.69H542.739V511.63H505.889V505.69H511.169V487.87H517.109V505.69H522.994V477.86H528.934V487.87H541.089V493.81ZM586.729 470.6V476.54H581.229V481.215H586.729V487.155H571.274V489.52H585.079V493.975H571.274V496.34H586.179V502.28H576.884C581.284 505.47 586.729 505.855 586.729 505.855L585.299 511.63C585.299 511.63 577.324 511.63 571.274 505.525V511.63H565.334V505.525C559.339 511.63 551.309 511.63 551.309 511.63L549.879 505.855C549.879 505.855 555.379 505.47 559.779 502.28H550.429V496.34H565.334V493.975H551.529V489.52H565.334V487.155H549.879V481.215H555.379V476.54H549.879V470.6H552.464L551.529 466.53H557.634L558.569 470.6H560.714V466.53H566.654V470.6H569.954V466.53H575.894V470.6H578.094L578.974 466.53H585.079L584.199 470.6H586.729ZM561.319 481.215H575.289V476.54H561.319V481.215ZM615.703 492.325C603.933 500.85 611.468 508.715 621.973 504.315L623.348 510.09C606.023 516.69 595.573 500.685 611.358 488.2C609.598 487.65 607.508 487.76 605.033 488.255V479.51H600.138V473.57H605.033V470.6H610.973V473.57H615.813V479.51H610.973V482.095C613.503 482.37 615.538 483.195 617.078 484.405C618.673 483.58 620.433 482.755 622.358 481.985L624.503 487.54C623.128 488.09 621.918 488.695 620.763 489.245C621.368 490.51 621.863 491.94 622.303 493.37L616.968 496.01C616.638 494.58 616.198 493.37 615.703 492.325ZM673.633 511.63H636.783V467.63H673.633V511.63ZM667.693 473.57H642.723V480.335H667.693V473.57ZM667.693 486.275H642.723V492.985H667.693V486.275ZM667.693 498.925H642.723V505.69H667.693V498.925ZM700.572 476.76V478.3C700.572 481.215 701.617 482.04 703.652 482.04H717.622V487.98H703.652C697.602 487.98 694.632 485.175 694.632 478.3V466.53H700.572V470.71L716.522 466.915V473.02L700.572 476.76ZM684.952 501.95V498.375C683.687 498.485 682.312 498.595 680.772 498.595V492.655C682.257 492.655 683.632 492.545 684.952 492.325V479.51H680.772V473.57H684.952V469.5H690.892V473.57H693.092V479.51H690.892V490.84C692.267 490.345 693.092 489.96 693.092 489.96V495.9C693.092 495.9 692.377 496.395 690.892 497V501.95C690.892 508.825 687.922 511.63 681.872 511.63V505.69C683.907 505.69 684.952 504.865 684.952 501.95ZM717.622 511.63H694.907V489.63H717.622V511.63ZM711.682 495.57H700.847V498.87H711.682V495.57ZM711.682 502.39H700.847V505.69H711.682V502.39ZM751.712 504.37L753.637 509.98C740.877 514.325 736.312 510.255 736.312 495.68V470.6H742.252V495.68C742.252 506.13 744.727 506.955 751.712 504.37ZM774.167 474.56L796.607 473.57L796.882 479.51C783.132 495.735 785.772 502.665 795.122 506.295L792.482 511.63C780.547 507.395 776.422 496.175 788.907 479.895L774.442 480.5L774.167 474.56ZM817.027 494.36V488.365H839.907V494.36H817.027Z" fill="white"/>
<mask id="path-4-outside-1_1_2" maskUnits="userSpaceOnUse" x="251" y="107" width="522" height="163" fill="black">
<rect fill="white" x="251" y="107" width="522" height="163"/>
<path d="M321.545 112.761H333.154V142.388L363.366 112.761H378.234L350.036 140.081L378.234 170H362.78L341.687 148.174L333.154 156.414V170H321.545V112.761ZM403.466 112.761H415.771L443.457 170H431.262L426.684 160.369H393.249L388.818 170H376.586L403.466 112.761ZM422.106 150.811L409.729 124.81L397.68 150.811H422.106ZM452.282 112.761H463.891L499.56 131.438V112.761H511.169V170H499.56V143.743L463.891 125.176V170H452.282V112.761ZM530.029 152.971C532.104 154.143 534.204 155.205 536.328 156.157C538.476 157.085 540.698 157.878 542.993 158.538C545.288 159.172 547.692 159.661 550.207 160.002C552.746 160.344 555.444 160.515 558.3 160.515C561.743 160.515 564.672 160.295 567.089 159.856C569.506 159.392 571.472 158.77 572.985 157.988C574.523 157.183 575.634 156.23 576.318 155.132C577.026 154.033 577.38 152.837 577.38 151.543C577.38 149.468 576.513 147.832 574.78 146.636C573.046 145.415 570.373 144.805 566.76 144.805C565.173 144.805 563.5 144.915 561.743 145.134C559.985 145.33 558.203 145.549 556.396 145.793C554.614 146.038 552.844 146.27 551.086 146.489C549.353 146.685 547.717 146.782 546.179 146.782C543.615 146.782 541.149 146.453 538.781 145.793C536.438 145.134 534.35 144.146 532.519 142.827C530.712 141.509 529.272 139.861 528.198 137.883C527.124 135.906 526.586 133.599 526.586 130.962C526.586 129.399 526.794 127.849 527.209 126.311C527.648 124.773 528.332 123.308 529.26 121.917C530.212 120.5 531.433 119.194 532.922 117.998C534.411 116.777 536.206 115.728 538.305 114.849C540.429 113.97 542.871 113.286 545.629 112.798C548.413 112.285 551.574 112.029 555.114 112.029C557.678 112.029 560.253 112.175 562.841 112.468C565.429 112.737 567.944 113.127 570.385 113.64C572.851 114.153 575.219 114.775 577.49 115.508C579.76 116.216 581.872 117.009 583.825 117.888L578.735 127.263C577.124 126.555 575.39 125.908 573.535 125.322C571.679 124.712 569.738 124.187 567.712 123.748C565.686 123.308 563.586 122.966 561.413 122.722C559.265 122.454 557.067 122.319 554.821 122.319C551.623 122.319 548.986 122.551 546.911 123.015C544.86 123.479 543.225 124.077 542.004 124.81C540.783 125.518 539.929 126.323 539.44 127.227C538.977 128.105 538.745 128.984 538.745 129.863C538.745 131.572 539.514 132.976 541.052 134.075C542.59 135.149 544.934 135.686 548.083 135.686C549.353 135.686 550.805 135.601 552.441 135.43C554.101 135.234 555.834 135.027 557.641 134.807C559.472 134.587 561.328 134.392 563.208 134.221C565.112 134.026 566.955 133.928 568.737 133.928C572.106 133.928 575.085 134.307 577.673 135.063C580.285 135.82 582.47 136.907 584.228 138.323C585.986 139.714 587.316 141.411 588.22 143.413C589.123 145.391 589.575 147.612 589.575 150.078C589.575 153.374 588.806 156.316 587.268 158.904C585.754 161.467 583.581 163.64 580.749 165.422C577.941 167.18 574.548 168.523 570.568 169.451C566.589 170.354 562.158 170.806 557.275 170.806C554.052 170.806 550.903 170.598 547.827 170.183C544.75 169.792 541.796 169.231 538.964 168.499C536.157 167.742 533.471 166.851 530.908 165.825C528.369 164.775 526.013 163.628 523.84 162.383L530.029 152.971ZM621.875 112.761H634.179L661.865 170H649.67L645.092 160.369H611.657L607.226 170H594.995L621.875 112.761ZM640.515 150.811L628.137 124.81L616.088 150.811H640.515ZM669.299 112.761H680.981V170H669.299V112.761ZM264.819 246.971C266.894 248.143 268.994 249.205 271.118 250.157C273.266 251.085 275.488 251.878 277.783 252.538C280.078 253.172 282.482 253.661 284.997 254.002C287.536 254.344 290.234 254.515 293.09 254.515C296.533 254.515 299.462 254.295 301.879 253.856C304.296 253.392 306.262 252.77 307.775 251.988C309.313 251.183 310.424 250.23 311.108 249.132C311.816 248.033 312.17 246.837 312.17 245.543C312.17 243.468 311.303 241.832 309.57 240.636C307.836 239.415 305.163 238.805 301.55 238.805C299.963 238.805 298.291 238.915 296.533 239.134C294.775 239.33 292.993 239.549 291.186 239.793C289.404 240.038 287.634 240.27 285.876 240.489C284.143 240.685 282.507 240.782 280.969 240.782C278.405 240.782 275.939 240.453 273.571 239.793C271.228 239.134 269.14 238.146 267.309 236.827C265.502 235.509 264.062 233.861 262.988 231.883C261.914 229.906 261.376 227.599 261.376 224.962C261.376 223.399 261.584 221.849 261.999 220.311C262.438 218.773 263.122 217.308 264.05 215.917C265.002 214.5 266.223 213.194 267.712 211.998C269.201 210.777 270.996 209.728 273.095 208.849C275.219 207.97 277.661 207.286 280.419 206.798C283.203 206.285 286.364 206.029 289.904 206.029C292.468 206.029 295.043 206.175 297.631 206.468C300.219 206.737 302.734 207.127 305.175 207.64C307.641 208.153 310.009 208.775 312.28 209.508C314.55 210.216 316.662 211.009 318.615 211.888L313.525 221.263C311.914 220.555 310.18 219.908 308.325 219.322C306.469 218.712 304.528 218.187 302.502 217.748C300.476 217.308 298.376 216.966 296.203 216.722C294.055 216.454 291.857 216.319 289.611 216.319C286.413 216.319 283.776 216.551 281.701 217.015C279.65 217.479 278.015 218.077 276.794 218.81C275.573 219.518 274.719 220.323 274.23 221.227C273.767 222.105 273.535 222.984 273.535 223.863C273.535 225.572 274.304 226.976 275.842 228.075C277.38 229.149 279.724 229.686 282.873 229.686C284.143 229.686 285.595 229.601 287.231 229.43C288.891 229.234 290.625 229.027 292.431 228.807C294.262 228.587 296.118 228.392 297.998 228.221C299.902 228.026 301.745 227.928 303.527 227.928C306.896 227.928 309.875 228.307 312.463 229.063C315.075 229.82 317.26 230.907 319.018 232.323C320.776 233.714 322.106 235.411 323.01 237.413C323.913 239.391 324.365 241.612 324.365 244.078C324.365 247.374 323.596 250.316 322.058 252.904C320.544 255.467 318.371 257.64 315.539 259.422C312.731 261.18 309.338 262.523 305.358 263.451C301.379 264.354 296.948 264.806 292.065 264.806C288.842 264.806 285.693 264.598 282.617 264.183C279.541 263.792 276.586 263.231 273.754 262.499C270.947 261.742 268.261 260.851 265.698 259.825C263.159 258.775 260.803 257.628 258.63 256.383L264.819 246.971ZM354.394 216.942H333.264V206.761H387.133V216.942H366.003V264H354.394V216.942ZM419.067 206.761H431.372L459.057 264H446.862L442.285 254.369H408.85L404.418 264H392.187L419.067 206.761ZM437.707 244.811L425.329 218.81L413.281 244.811H437.707ZM467.956 206.761H497.07C501.464 206.761 505.273 207.225 508.496 208.153C511.718 209.056 514.392 210.375 516.516 212.108C518.64 213.841 520.214 215.953 521.24 218.443C522.29 220.934 522.814 223.753 522.814 226.903C522.814 229.027 522.558 231.053 522.045 232.982C521.533 234.886 520.739 236.644 519.665 238.255C518.615 239.867 517.285 241.307 515.673 242.577C514.062 243.822 512.17 244.859 509.997 245.689L522.448 264H508.239L497.473 247.74H497.143L479.565 247.704V264H467.956V206.761ZM497.363 237.669C499.56 237.669 501.477 237.413 503.112 236.9C504.772 236.388 506.152 235.667 507.25 234.74C508.374 233.812 509.204 232.689 509.741 231.371C510.302 230.028 510.583 228.539 510.583 226.903C510.583 223.705 509.484 221.239 507.287 219.505C505.09 217.748 501.782 216.869 497.363 216.869H479.565V237.669H497.363ZM561.486 206.761H573.095V253.819H606.384V264H561.486V206.761ZM616.198 206.761H627.88V264H616.198V206.761ZM642.639 206.761H654.248L689.917 225.438V206.761H701.525V264H689.917V237.743L654.248 219.176V264H642.639V206.761ZM717.712 206.761H766.455V216.942H729.321V228.368H762.207V237.926H729.321V253.856H767.224V264H717.712V206.761Z"/>
</mask>
<path d="M321.545 112.761H333.154V142.388L363.366 112.761H378.234L350.036 140.081L378.234 170H362.78L341.687 148.174L333.154 156.414V170H321.545V112.761ZM403.466 112.761H415.771L443.457 170H431.262L426.684 160.369H393.249L388.818 170H376.586L403.466 112.761ZM422.106 150.811L409.729 124.81L397.68 150.811H422.106ZM452.282 112.761H463.891L499.56 131.438V112.761H511.169V170H499.56V143.743L463.891 125.176V170H452.282V112.761ZM530.029 152.971C532.104 154.143 534.204 155.205 536.328 156.157C538.476 157.085 540.698 157.878 542.993 158.538C545.288 159.172 547.692 159.661 550.207 160.002C552.746 160.344 555.444 160.515 558.3 160.515C561.743 160.515 564.672 160.295 567.089 159.856C569.506 159.392 571.472 158.77 572.985 157.988C574.523 157.183 575.634 156.23 576.318 155.132C577.026 154.033 577.38 152.837 577.38 151.543C577.38 149.468 576.513 147.832 574.78 146.636C573.046 145.415 570.373 144.805 566.76 144.805C565.173 144.805 563.5 144.915 561.743 145.134C559.985 145.33 558.203 145.549 556.396 145.793C554.614 146.038 552.844 146.27 551.086 146.489C549.353 146.685 547.717 146.782 546.179 146.782C543.615 146.782 541.149 146.453 538.781 145.793C536.438 145.134 534.35 144.146 532.519 142.827C530.712 141.509 529.272 139.861 528.198 137.883C527.124 135.906 526.586 133.599 526.586 130.962C526.586 129.399 526.794 127.849 527.209 126.311C527.648 124.773 528.332 123.308 529.26 121.917C530.212 120.5 531.433 119.194 532.922 117.998C534.411 116.777 536.206 115.728 538.305 114.849C540.429 113.97 542.871 113.286 545.629 112.798C548.413 112.285 551.574 112.029 555.114 112.029C557.678 112.029 560.253 112.175 562.841 112.468C565.429 112.737 567.944 113.127 570.385 113.64C572.851 114.153 575.219 114.775 577.49 115.508C579.76 116.216 581.872 117.009 583.825 117.888L578.735 127.263C577.124 126.555 575.39 125.908 573.535 125.322C571.679 124.712 569.738 124.187 567.712 123.748C565.686 123.308 563.586 122.966 561.413 122.722C559.265 122.454 557.067 122.319 554.821 122.319C551.623 122.319 548.986 122.551 546.911 123.015C544.86 123.479 543.225 124.077 542.004 124.81C540.783 125.518 539.929 126.323 539.44 127.227C538.977 128.105 538.745 128.984 538.745 129.863C538.745 131.572 539.514 132.976 541.052 134.075C542.59 135.149 544.934 135.686 548.083 135.686C549.353 135.686 550.805 135.601 552.441 135.43C554.101 135.234 555.834 135.027 557.641 134.807C559.472 134.587 561.328 134.392 563.208 134.221C565.112 134.026 566.955 133.928 568.737 133.928C572.106 133.928 575.085 134.307 577.673 135.063C580.285 135.82 582.47 136.907 584.228 138.323C585.986 139.714 587.316 141.411 588.22 143.413C589.123 145.391 589.575 147.612 589.575 150.078C589.575 153.374 588.806 156.316 587.268 158.904C585.754 161.467 583.581 163.64 580.749 165.422C577.941 167.18 574.548 168.523 570.568 169.451C566.589 170.354 562.158 170.806 557.275 170.806C554.052 170.806 550.903 170.598 547.827 170.183C544.75 169.792 541.796 169.231 538.964 168.499C536.157 167.742 533.471 166.851 530.908 165.825C528.369 164.775 526.013 163.628 523.84 162.383L530.029 152.971ZM621.875 112.761H634.179L661.865 170H649.67L645.092 160.369H611.657L607.226 170H594.995L621.875 112.761ZM640.515 150.811L628.137 124.81L616.088 150.811H640.515ZM669.299 112.761H680.981V170H669.299V112.761ZM264.819 246.971C266.894 248.143 268.994 249.205 271.118 250.157C273.266 251.085 275.488 251.878 277.783 252.538C280.078 253.172 282.482 253.661 284.997 254.002C287.536 254.344 290.234 254.515 293.09 254.515C296.533 254.515 299.462 254.295 301.879 253.856C304.296 253.392 306.262 252.77 307.775 251.988C309.313 251.183 310.424 250.23 311.108 249.132C311.816 248.033 312.17 246.837 312.17 245.543C312.17 243.468 311.303 241.832 309.57 240.636C307.836 239.415 305.163 238.805 301.55 238.805C299.963 238.805 298.291 238.915 296.533 239.134C294.775 239.33 292.993 239.549 291.186 239.793C289.404 240.038 287.634 240.27 285.876 240.489C284.143 240.685 282.507 240.782 280.969 240.782C278.405 240.782 275.939 240.453 273.571 239.793C271.228 239.134 269.14 238.146 267.309 236.827C265.502 235.509 264.062 233.861 262.988 231.883C261.914 229.906 261.376 227.599 261.376 224.962C261.376 223.399 261.584 221.849 261.999 220.311C262.438 218.773 263.122 217.308 264.05 215.917C265.002 214.5 266.223 213.194 267.712 211.998C269.201 210.777 270.996 209.728 273.095 208.849C275.219 207.97 277.661 207.286 280.419 206.798C283.203 206.285 286.364 206.029 289.904 206.029C292.468 206.029 295.043 206.175 297.631 206.468C300.219 206.737 302.734 207.127 305.175 207.64C307.641 208.153 310.009 208.775 312.28 209.508C314.55 210.216 316.662 211.009 318.615 211.888L313.525 221.263C311.914 220.555 310.18 219.908 308.325 219.322C306.469 218.712 304.528 218.187 302.502 217.748C300.476 217.308 298.376 216.966 296.203 216.722C294.055 216.454 291.857 216.319 289.611 216.319C286.413 216.319 283.776 216.551 281.701 217.015C279.65 217.479 278.015 218.077 276.794 218.81C275.573 219.518 274.719 220.323 274.23 221.227C273.767 222.105 273.535 222.984 273.535 223.863C273.535 225.572 274.304 226.976 275.842 228.075C277.38 229.149 279.724 229.686 282.873 229.686C284.143 229.686 285.595 229.601 287.231 229.43C288.891 229.234 290.625 229.027 292.431 228.807C294.262 228.587 296.118 228.392 297.998 228.221C299.902 228.026 301.745 227.928 303.527 227.928C306.896 227.928 309.875 228.307 312.463 229.063C315.075 229.82 317.26 230.907 319.018 232.323C320.776 233.714 322.106 235.411 323.01 237.413C323.913 239.391 324.365 241.612 324.365 244.078C324.365 247.374 323.596 250.316 322.058 252.904C320.544 255.467 318.371 257.64 315.539 259.422C312.731 261.18 309.338 262.523 305.358 263.451C301.379 264.354 296.948 264.806 292.065 264.806C288.842 264.806 285.693 264.598 282.617 264.183C279.541 263.792 276.586 263.231 273.754 262.499C270.947 261.742 268.261 260.851 265.698 259.825C263.159 258.775 260.803 257.628 258.63 256.383L264.819 246.971ZM354.394 216.942H333.264V206.761H387.133V216.942H366.003V264H354.394V216.942ZM419.067 206.761H431.372L459.057 264H446.862L442.285 254.369H408.85L404.418 264H392.187L419.067 206.761ZM437.707 244.811L425.329 218.81L413.281 244.811H437.707ZM467.956 206.761H497.07C501.464 206.761 505.273 207.225 508.496 208.153C511.718 209.056 514.392 210.375 516.516 212.108C518.64 213.841 520.214 215.953 521.24 218.443C522.29 220.934 522.814 223.753 522.814 226.903C522.814 229.027 522.558 231.053 522.045 232.982C521.533 234.886 520.739 236.644 519.665 238.255C518.615 239.867 517.285 241.307 515.673 242.577C514.062 243.822 512.17 244.859 509.997 245.689L522.448 264H508.239L497.473 247.74H497.143L479.565 247.704V264H467.956V206.761ZM497.363 237.669C499.56 237.669 501.477 237.413 503.112 236.9C504.772 236.388 506.152 235.667 507.25 234.74C508.374 233.812 509.204 232.689 509.741 231.371C510.302 230.028 510.583 228.539 510.583 226.903C510.583 223.705 509.484 221.239 507.287 219.505C505.09 217.748 501.782 216.869 497.363 216.869H479.565V237.669H497.363ZM561.486 206.761H573.095V253.819H606.384V264H561.486V206.761ZM616.198 206.761H627.88V264H616.198V206.761ZM642.639 206.761H654.248L689.917 225.438V206.761H701.525V264H689.917V237.743L654.248 219.176V264H642.639V206.761ZM717.712 206.761H766.455V216.942H729.321V228.368H762.207V237.926H729.321V253.856H767.224V264H717.712V206.761Z" fill="#AD0003"/>
<path d="M321.545 112.761V107.761H316.545V112.761H321.545ZM333.154 112.761H338.154V107.761H333.154V112.761ZM333.154 142.388H328.154V154.294L336.655 145.958L333.154 142.388ZM363.366 112.761V107.761H361.324L359.865 109.191L363.366 112.761ZM378.234 112.761L381.714 116.352L390.581 107.761H378.234V112.761ZM350.036 140.081L346.557 136.49L343.015 139.921L346.397 143.51L350.036 140.081ZM378.234 170V175H389.817L381.873 166.571L378.234 170ZM362.78 170L359.185 173.475L360.659 175H362.78V170ZM341.687 148.174L345.282 144.699L341.809 141.105L338.213 144.577L341.687 148.174ZM333.154 156.414L329.681 152.817L328.154 154.291V156.414H333.154ZM333.154 170V175H338.154V170H333.154ZM321.545 170H316.545V175H321.545V170ZM321.545 117.761H333.154V107.761H321.545V117.761ZM328.154 112.761V142.388H338.154V112.761H328.154ZM336.655 145.958L366.867 116.331L359.865 109.191L329.653 138.818L336.655 145.958ZM363.366 117.761H378.234V107.761H363.366V117.761ZM374.755 109.17L346.557 136.49L353.515 143.672L381.714 116.352L374.755 109.17ZM346.397 143.51L374.596 173.429L381.873 166.571L353.675 136.651L346.397 143.51ZM378.234 165H362.78V175H378.234V165ZM366.376 166.525L345.282 144.699L338.091 151.649L359.185 173.475L366.376 166.525ZM338.213 144.577L329.681 152.817L336.627 160.01L345.16 151.771L338.213 144.577ZM328.154 156.414V170H338.154V156.414H328.154ZM333.154 165H321.545V175H333.154V165ZM326.545 170V112.761H316.545V170H326.545ZM403.466 112.761V107.761H400.29L398.941 110.636L403.466 112.761ZM415.771 112.761L420.272 110.584L418.907 107.761H415.771V112.761ZM443.457 170V175H451.429L447.958 167.823L443.457 170ZM431.262 170L426.746 172.146L428.102 175H431.262V170ZM426.684 160.369L431.2 158.222L429.844 155.369H426.684V160.369ZM393.249 160.369V155.369H390.046L388.707 158.279L393.249 160.369ZM388.818 170V175H392.021L393.36 172.09L388.818 170ZM376.586 170L372.061 167.875L368.714 175H376.586V170ZM422.106 150.811V155.811H430.024L426.621 148.661L422.106 150.811ZM409.729 124.81L414.243 122.66L409.667 113.049L405.192 122.707L409.729 124.81ZM397.68 150.811L393.144 148.708L389.853 155.811H397.68V150.811ZM403.466 117.761H415.771V107.761H403.466V117.761ZM411.27 114.938L438.955 172.177L447.958 167.823L420.272 110.584L411.27 114.938ZM443.457 165H431.262V175H443.457V165ZM435.778 167.854L431.2 158.222L422.168 162.515L426.746 172.146L435.778 167.854ZM426.684 155.369H393.249V165.369H426.684V155.369ZM388.707 158.279L384.276 167.91L393.36 172.09L397.791 162.458L388.707 158.279ZM388.818 165H376.586V175H388.818V165ZM381.112 172.125L407.992 114.887L398.941 110.636L372.061 167.875L381.112 172.125ZM426.621 148.661L414.243 122.66L405.214 126.959L417.592 152.96L426.621 148.661ZM405.192 122.707L393.144 148.708L402.217 152.913L414.265 126.912L405.192 122.707ZM397.68 155.811H422.106V145.811H397.68V155.811ZM452.282 112.761V107.761H447.282V112.761H452.282ZM463.891 112.761L466.21 108.332L465.121 107.761H463.891V112.761ZM499.56 131.438L497.241 135.868L504.56 139.7V131.438H499.56ZM499.56 112.761V107.761H494.56V112.761H499.56ZM511.169 112.761H516.169V107.761H511.169V112.761ZM511.169 170V175H516.169V170H511.169ZM499.56 170H494.56V175H499.56V170ZM499.56 143.743H504.56V140.709L501.869 139.308L499.56 143.743ZM463.891 125.176L466.2 120.741L458.891 116.936V125.176H463.891ZM463.891 170V175H468.891V170H463.891ZM452.282 170H447.282V175H452.282V170ZM452.282 117.761H463.891V107.761H452.282V117.761ZM461.572 117.191L497.241 135.868L501.879 127.008L466.21 108.332L461.572 117.191ZM504.56 131.438V112.761H494.56V131.438H504.56ZM499.56 117.761H511.169V107.761H499.56V117.761ZM506.169 112.761V170H516.169V112.761H506.169ZM511.169 165H499.56V175H511.169V165ZM504.56 170V143.743H494.56V170H504.56ZM501.869 139.308L466.2 120.741L461.582 129.611L497.251 148.178L501.869 139.308ZM458.891 125.176V170H468.891V125.176H458.891ZM463.891 165H452.282V175H463.891V165ZM457.282 170V112.761H447.282V170H457.282ZM530.029 152.971L532.487 148.617L528.419 146.32L525.851 150.224L530.029 152.971ZM536.328 156.157L534.282 160.72L534.314 160.734L534.345 160.748L536.328 156.157ZM542.993 158.538L541.612 163.343L541.636 163.35L541.66 163.357L542.993 158.538ZM550.207 160.002L549.534 164.957L549.54 164.958L550.207 160.002ZM567.089 159.856L567.984 164.775L568.008 164.771L568.032 164.766L567.089 159.856ZM572.985 157.988L575.279 162.431L575.292 162.424L575.305 162.417L572.985 157.988ZM576.318 155.132L572.115 152.423L572.094 152.457L572.073 152.49L576.318 155.132ZM574.78 146.636L571.901 150.724L571.92 150.737L571.94 150.751L574.78 146.636ZM561.743 145.134L562.295 150.104L562.329 150.1L562.363 150.096L561.743 145.134ZM556.396 145.793L555.726 140.838L555.717 140.84L556.396 145.793ZM551.086 146.489L551.646 151.458L551.676 151.454L551.706 151.451L551.086 146.489ZM538.781 145.793L537.428 150.607L537.44 150.61L538.781 145.793ZM532.519 142.827L529.572 146.866L529.585 146.876L529.598 146.885L532.519 142.827ZM527.209 126.311L522.401 124.937L522.391 124.973L522.382 125.008L527.209 126.311ZM529.26 121.917L525.111 119.127L525.105 119.135L525.1 119.143L529.26 121.917ZM532.922 117.998L536.053 121.896L536.072 121.881L536.092 121.865L532.922 117.998ZM538.305 114.849L536.393 110.229L536.384 110.232L536.374 110.236L538.305 114.849ZM545.629 112.798L546.501 117.721L546.518 117.718L546.535 117.715L545.629 112.798ZM562.841 112.468L562.279 117.437L562.302 117.439L562.325 117.442L562.841 112.468ZM570.385 113.64L569.358 118.533L569.367 118.535L570.385 113.64ZM577.49 115.508L575.955 120.266L575.978 120.274L576.001 120.281L577.49 115.508ZM583.825 117.888L588.219 120.274L590.79 115.539L585.877 113.329L583.825 117.888ZM578.735 127.263L576.723 131.841L580.934 133.691L583.129 129.649L578.735 127.263ZM573.535 125.322L571.972 130.072L572.001 130.081L572.029 130.09L573.535 125.322ZM561.413 122.722L560.793 127.684L560.824 127.687L560.855 127.691L561.413 122.722ZM546.911 123.015L545.82 118.136L545.808 118.138L546.911 123.015ZM542.004 124.81L544.512 129.135L544.545 129.116L544.576 129.097L542.004 124.81ZM539.44 127.227L535.042 124.849L535.03 124.871L535.019 124.893L539.44 127.227ZM541.052 134.075L538.146 138.143L538.167 138.159L538.189 138.174L541.052 134.075ZM552.441 135.43L552.96 140.403L552.993 140.399L553.025 140.395L552.441 135.43ZM557.641 134.807L557.045 129.843L557.037 129.844L557.641 134.807ZM563.208 134.221L563.66 139.201L563.689 139.198L563.718 139.195L563.208 134.221ZM577.673 135.063L576.269 139.862L576.281 139.866L577.673 135.063ZM584.228 138.323L581.091 142.217L581.108 142.23L581.125 142.243L584.228 138.323ZM588.22 143.413L583.662 145.47L583.667 145.48L583.672 145.491L588.22 143.413ZM587.268 158.904L582.969 156.349L582.966 156.355L582.962 156.362L587.268 158.904ZM580.749 165.422L583.402 169.66L583.412 169.654L580.749 165.422ZM570.568 169.451L571.675 174.327L571.689 174.323L571.704 174.32L570.568 169.451ZM547.827 170.183L548.495 165.228L548.476 165.225L548.457 165.223L547.827 170.183ZM538.964 168.499L537.663 173.326L537.688 173.333L537.712 173.339L538.964 168.499ZM530.908 165.825L528.997 170.446L529.024 170.457L529.051 170.468L530.908 165.825ZM523.84 162.383L519.662 159.636L516.741 164.078L521.354 166.721L523.84 162.383ZM527.57 157.325C529.777 158.571 532.014 159.703 534.282 160.72L538.373 151.595C536.393 150.707 534.431 149.715 532.487 148.617L527.57 157.325ZM534.345 160.748C536.694 161.762 539.117 162.626 541.612 163.343L544.373 153.732C542.279 153.13 540.259 152.408 538.31 151.567L534.345 160.748ZM541.66 163.357C544.185 164.055 546.811 164.587 549.534 164.957L550.88 155.048C548.574 154.734 546.39 154.29 544.326 153.719L541.66 163.357ZM549.54 164.958C552.324 165.332 555.246 165.515 558.3 165.515V155.515C555.642 155.515 553.169 155.356 550.874 155.047L549.54 164.958ZM558.3 165.515C561.933 165.515 565.181 165.285 567.984 164.775L566.195 154.937C564.164 155.306 561.552 155.515 558.3 155.515V165.515ZM568.032 164.766C570.73 164.249 573.196 163.506 575.279 162.431L570.692 153.545C569.747 154.033 568.283 154.536 566.147 154.946L568.032 164.766ZM575.305 162.417C577.372 161.335 579.274 159.845 580.563 157.773L572.073 152.49C571.994 152.616 571.675 153.03 570.665 153.559L575.305 162.417ZM580.521 157.84C581.744 155.943 582.38 153.808 582.38 151.543H572.38C572.38 151.866 572.308 152.124 572.115 152.423L580.521 157.84ZM582.38 151.543C582.38 147.795 580.682 144.634 577.62 142.521L571.94 150.751C572.237 150.956 572.303 151.085 572.312 151.101C572.319 151.114 572.38 151.221 572.38 151.543H582.38ZM577.659 142.548C574.674 140.446 570.754 139.805 566.76 139.805V149.805C569.992 149.805 571.419 150.385 571.901 150.724L577.659 142.548ZM566.76 139.805C564.943 139.805 563.063 139.93 561.123 140.173L562.363 150.096C563.938 149.899 565.402 149.805 566.76 149.805V139.805ZM561.191 140.165C559.392 140.365 557.571 140.589 555.726 140.838L557.066 150.748C558.834 150.509 560.577 150.295 562.295 150.104L561.191 140.165ZM555.717 140.84C553.954 141.081 552.204 141.311 550.466 141.528L551.706 151.451C553.484 151.228 555.273 150.994 557.075 150.747L555.717 140.84ZM550.526 141.521C548.954 141.698 547.507 141.782 546.179 141.782V151.782C547.927 151.782 549.751 151.671 551.646 151.458L550.526 141.521ZM546.179 141.782C544.049 141.782 542.035 141.509 540.122 140.977L537.44 150.61C540.264 151.396 543.182 151.782 546.179 151.782V141.782ZM540.135 140.98C538.309 140.467 536.761 139.72 535.441 138.769L529.598 146.885C531.939 148.571 534.566 149.802 537.428 150.607L540.135 140.98ZM535.466 138.788C534.262 137.909 533.314 136.827 532.591 135.497L523.804 140.27C525.23 142.894 527.163 145.108 529.572 146.866L535.466 138.788ZM532.591 135.497C531.978 134.368 531.586 132.909 531.586 130.962H521.586C521.586 134.289 522.269 137.443 523.804 140.27L532.591 135.497ZM531.586 130.962C531.586 129.848 531.734 128.735 532.036 127.614L522.382 125.008C521.854 126.963 521.586 128.951 521.586 130.962H531.586ZM532.017 127.685C532.308 126.666 532.766 125.671 533.42 124.69L525.1 119.143C523.898 120.945 522.989 122.88 522.401 124.937L532.017 127.685ZM533.409 124.706C534.048 123.756 534.911 122.814 536.053 121.896L529.791 114.1C527.954 115.575 526.376 117.245 525.111 119.127L533.409 124.706ZM536.092 121.865C537.145 121.001 538.504 120.186 540.236 119.461L536.374 110.236C533.907 111.269 531.677 112.553 529.752 114.131L536.092 121.865ZM540.217 119.469C541.943 118.755 544.024 118.16 546.501 117.721L544.758 107.874C541.717 108.413 538.916 109.185 536.393 110.229L540.217 119.469ZM546.535 117.715C548.956 117.269 551.806 117.029 555.114 117.029V107.029C551.342 107.029 547.869 107.301 544.724 107.881L546.535 117.715ZM555.114 117.029C557.487 117.029 559.875 117.164 562.279 117.437L563.404 107.5C560.632 107.186 557.869 107.029 555.114 107.029V117.029ZM562.325 117.442C564.749 117.693 567.092 118.058 569.358 118.533L571.413 108.747C568.795 108.197 566.11 107.781 563.357 107.495L562.325 117.442ZM569.367 118.535C571.668 119.014 573.863 119.592 575.955 120.266L579.025 110.749C576.575 109.959 574.034 109.292 571.403 108.745L569.367 118.535ZM576.001 120.281C578.101 120.936 580.022 121.66 581.773 122.448L585.877 113.329C583.722 112.359 581.42 111.496 578.978 110.735L576.001 120.281ZM579.431 115.502L574.341 124.877L583.129 129.649L588.219 120.274L579.431 115.502ZM580.746 122.686C578.954 121.898 577.05 121.189 575.04 120.554L572.029 130.09C573.73 130.627 575.293 131.212 576.723 131.841L580.746 122.686ZM575.097 120.573C573.067 119.905 570.957 119.335 568.772 118.861L566.652 128.634C568.519 129.039 570.292 129.519 571.972 130.072L575.097 120.573ZM568.772 118.861C566.571 118.384 564.304 118.015 561.971 117.753L560.855 127.691C562.868 127.917 564.8 128.232 566.652 128.634L568.772 118.861ZM562.033 117.761C559.672 117.466 557.267 117.319 554.821 117.319V127.319C556.868 127.319 558.858 127.442 560.793 127.684L562.033 117.761ZM554.821 117.319C551.42 117.319 548.384 117.562 545.82 118.136L548.002 127.895C549.588 127.54 551.826 127.319 554.821 127.319V117.319ZM545.808 118.138C543.462 118.669 541.269 119.42 539.431 120.522L544.576 129.097C545.18 128.735 546.259 128.289 548.014 127.892L545.808 118.138ZM539.495 120.484C537.764 121.488 536.103 122.885 535.042 124.849L543.839 129.604C543.754 129.761 543.802 129.547 544.512 129.135L539.495 120.484ZM535.019 124.893C534.225 126.396 533.745 128.07 533.745 129.863H543.745C543.745 129.869 543.743 129.858 543.753 129.821C543.764 129.781 543.791 129.695 543.862 129.56L535.019 124.893ZM533.745 129.863C533.745 133.376 535.455 136.222 538.146 138.143L543.958 130.006C543.822 129.909 543.75 129.839 543.718 129.804C543.688 129.772 543.692 129.768 543.707 129.796C543.722 129.824 543.736 129.859 543.743 129.889C543.75 129.917 543.745 129.913 543.745 129.863H533.745ZM538.189 138.174C540.964 140.112 544.535 140.686 548.083 140.686V130.686C545.332 130.686 544.215 130.186 543.915 129.975L538.189 138.174ZM548.083 140.686C549.568 140.686 551.2 140.587 552.96 140.403L551.921 130.457C550.411 130.615 549.137 130.686 548.083 130.686V140.686ZM553.025 140.395C554.692 140.199 556.432 139.991 558.245 139.771L557.037 129.844C555.237 130.063 553.51 130.269 551.857 130.464L553.025 140.395ZM558.237 139.772C560.019 139.558 561.827 139.367 563.66 139.201L562.755 129.242C560.828 129.417 558.925 129.617 557.045 129.843L558.237 139.772ZM563.718 139.195C565.465 139.016 567.137 138.928 568.737 138.928V128.928C566.773 128.928 564.759 129.036 562.697 129.247L563.718 139.195ZM568.737 138.928C571.744 138.928 574.234 139.267 576.269 139.862L579.076 130.264C575.936 129.346 572.469 128.928 568.737 128.928V138.928ZM576.281 139.866C578.385 140.475 579.944 141.292 581.091 142.217L587.365 134.429C584.997 132.522 582.185 131.165 579.064 130.261L576.281 139.866ZM581.125 142.243C582.269 143.149 583.095 144.212 583.662 145.47L592.777 141.357C591.538 138.611 589.702 136.28 587.332 134.403L581.125 142.243ZM583.672 145.491C584.24 146.734 584.575 148.233 584.575 150.078H594.575C594.575 146.992 594.006 144.047 592.768 141.336L583.672 145.491ZM584.575 150.078C584.575 152.563 584.005 154.607 582.969 156.349L591.566 161.458C593.606 158.025 594.575 154.185 594.575 150.078H584.575ZM582.962 156.362C581.901 158.158 580.328 159.779 578.086 161.191L583.412 169.654C586.834 167.501 589.606 164.777 591.573 161.446L582.962 156.362ZM578.096 161.184C575.85 162.59 572.996 163.751 569.433 164.581L571.704 174.32C576.1 173.295 580.032 171.77 583.402 169.66L578.096 161.184ZM569.462 164.575C565.908 165.381 561.856 165.806 557.275 165.806V175.806C562.46 175.806 567.27 175.327 571.675 174.327L569.462 164.575ZM557.275 165.806C554.267 165.806 551.342 165.612 548.495 165.228L547.158 175.138C550.464 175.584 553.837 175.806 557.275 175.806V165.806ZM548.457 165.223C545.578 164.857 542.832 164.334 540.216 163.658L537.712 173.339C540.761 174.128 543.923 174.728 547.197 175.143L548.457 165.223ZM540.266 163.671C537.637 162.962 535.137 162.132 532.765 161.183L529.051 170.468C531.805 171.569 534.677 172.521 537.663 173.326L540.266 163.671ZM532.818 161.205C530.458 160.229 528.296 159.174 526.326 158.045L521.354 166.721C523.729 168.082 526.279 169.322 528.997 170.446L532.818 161.205ZM528.018 165.13L534.206 155.718L525.851 150.224L519.662 159.636L528.018 165.13ZM621.875 112.761V107.761H618.699L617.349 110.636L621.875 112.761ZM634.179 112.761L638.68 110.584L637.315 107.761H634.179V112.761ZM661.865 170V175H669.837L666.366 167.823L661.865 170ZM649.67 170L645.154 172.146L646.51 175H649.67V170ZM645.092 160.369L649.608 158.222L648.252 155.369H645.092V160.369ZM611.657 160.369V155.369H608.454L607.115 158.279L611.657 160.369ZM607.226 170V175H610.429L611.768 172.09L607.226 170ZM594.995 170L590.469 167.875L587.123 175H594.995V170ZM640.515 150.811V155.811H648.433L645.029 148.661L640.515 150.811ZM628.137 124.81L632.651 122.66L628.076 113.049L623.6 122.707L628.137 124.81ZM616.088 150.811L611.552 148.708L608.261 155.811H616.088V150.811ZM621.875 117.761H634.179V107.761H621.875V117.761ZM629.678 114.938L657.364 172.177L666.366 167.823L638.68 110.584L629.678 114.938ZM661.865 165H649.67V175H661.865V165ZM654.186 167.854L649.608 158.222L640.576 162.515L645.154 172.146L654.186 167.854ZM645.092 155.369H611.657V165.369H645.092V155.369ZM607.115 158.279L602.684 167.91L611.768 172.09L616.2 162.458L607.115 158.279ZM607.226 165H594.995V175H607.226V165ZM599.52 172.125L626.4 114.887L617.349 110.636L590.469 167.875L599.52 172.125ZM645.029 148.661L632.651 122.66L623.622 126.959L636 152.96L645.029 148.661ZM623.6 122.707L611.552 148.708L620.625 152.913L632.673 126.912L623.6 122.707ZM616.088 155.811H640.515V145.811H616.088V155.811ZM669.299 112.761V107.761H664.299V112.761H669.299ZM680.981 112.761H685.981V107.761H680.981V112.761ZM680.981 170V175H685.981V170H680.981ZM669.299 170H664.299V175H669.299V170ZM669.299 117.761H680.981V107.761H669.299V117.761ZM675.981 112.761V170H685.981V112.761H675.981ZM680.981 165H669.299V175H680.981V165ZM674.299 170V112.761H664.299V170H674.299ZM264.819 246.971L267.277 242.617L263.209 240.32L260.641 244.224L264.819 246.971ZM271.118 250.157L269.072 254.72L269.104 254.734L269.135 254.748L271.118 250.157ZM277.783 252.538L276.402 257.343L276.426 257.35L276.45 257.357L277.783 252.538ZM284.997 254.002L284.324 258.957L284.33 258.958L284.997 254.002ZM301.879 253.856L302.774 258.775L302.798 258.771L302.822 258.766L301.879 253.856ZM307.775 251.988L310.069 256.431L310.082 256.424L310.095 256.417L307.775 251.988ZM311.108 249.132L306.905 246.423L306.884 246.457L306.863 246.49L311.108 249.132ZM309.57 240.636L306.691 244.724L306.71 244.737L306.73 244.751L309.57 240.636ZM296.533 239.134L297.085 244.104L297.119 244.1L297.153 244.096L296.533 239.134ZM291.186 239.793L290.516 234.838L290.507 234.84L291.186 239.793ZM285.876 240.489L286.436 245.458L286.466 245.454L286.496 245.451L285.876 240.489ZM273.571 239.793L272.218 244.607L272.231 244.61L273.571 239.793ZM267.309 236.827L264.362 240.866L264.375 240.876L264.388 240.885L267.309 236.827ZM261.999 220.311L257.191 218.937L257.181 218.973L257.172 219.008L261.999 220.311ZM264.05 215.917L259.901 213.127L259.895 213.135L259.89 213.143L264.05 215.917ZM267.712 211.998L270.843 215.896L270.862 215.881L270.882 215.865L267.712 211.998ZM273.095 208.849L271.183 204.229L271.174 204.232L271.165 204.236L273.095 208.849ZM280.419 206.798L281.291 211.721L281.308 211.718L281.325 211.715L280.419 206.798ZM297.631 206.468L297.069 211.437L297.092 211.439L297.115 211.442L297.631 206.468ZM305.175 207.64L304.148 212.533L304.157 212.535L305.175 207.64ZM312.28 209.508L310.745 214.266L310.768 214.274L310.791 214.281L312.28 209.508ZM318.615 211.888L323.009 214.274L325.58 209.539L320.667 207.329L318.615 211.888ZM313.525 221.263L311.514 225.841L315.724 227.691L317.919 223.649L313.525 221.263ZM308.325 219.322L306.762 224.072L306.791 224.081L306.819 224.09L308.325 219.322ZM296.203 216.722L295.583 221.684L295.614 221.687L295.645 221.691L296.203 216.722ZM281.701 217.015L280.61 212.136L280.598 212.138L281.701 217.015ZM276.794 218.81L279.303 223.135L279.335 223.116L279.366 223.097L276.794 218.81ZM274.23 221.227L269.832 218.849L269.82 218.871L269.809 218.893L274.23 221.227ZM275.842 228.075L272.936 232.143L272.957 232.159L272.979 232.174L275.842 228.075ZM287.231 229.43L287.751 234.403L287.783 234.399L287.815 234.395L287.231 229.43ZM292.431 228.807L291.835 223.843L291.827 223.844L292.431 228.807ZM297.998 228.221L298.45 233.201L298.479 233.198L298.508 233.195L297.998 228.221ZM312.463 229.063L311.059 233.862L311.072 233.866L312.463 229.063ZM319.018 232.323L315.881 236.217L315.898 236.23L315.915 236.243L319.018 232.323ZM323.01 237.413L318.452 239.47L318.457 239.48L318.462 239.491L323.01 237.413ZM322.058 252.904L317.759 250.349L317.756 250.355L317.752 250.362L322.058 252.904ZM315.539 259.422L318.192 263.66L318.202 263.654L315.539 259.422ZM305.358 263.451L306.465 268.327L306.479 268.323L306.494 268.32L305.358 263.451ZM282.617 264.183L283.285 259.228L283.266 259.225L283.247 259.223L282.617 264.183ZM273.754 262.499L272.453 267.326L272.478 267.333L272.502 267.339L273.754 262.499ZM265.698 259.825L263.787 264.446L263.814 264.457L263.841 264.468L265.698 259.825ZM258.63 256.383L254.452 253.636L251.531 258.078L256.144 260.721L258.63 256.383ZM262.36 251.325C264.567 252.571 266.804 253.703 269.072 254.72L273.163 245.595C271.183 244.707 269.221 243.715 267.277 242.617L262.36 251.325ZM269.135 254.748C271.484 255.762 273.907 256.626 276.402 257.343L279.163 247.732C277.069 247.13 275.049 246.408 273.1 245.567L269.135 254.748ZM276.45 257.357C278.975 258.055 281.601 258.587 284.324 258.957L285.67 249.048C283.364 248.734 281.18 248.29 279.116 247.719L276.45 257.357ZM284.33 258.958C287.114 259.332 290.036 259.515 293.09 259.515V249.515C290.432 249.515 287.959 249.356 285.664 249.047L284.33 258.958ZM293.09 259.515C296.723 259.515 299.971 259.285 302.774 258.775L300.985 248.937C298.954 249.306 296.342 249.515 293.09 249.515V259.515ZM302.822 258.766C305.52 258.249 307.986 257.506 310.069 256.431L305.482 247.545C304.537 248.033 303.073 248.536 300.937 248.946L302.822 258.766ZM310.095 256.417C312.162 255.335 314.064 253.845 315.353 251.773L306.863 246.49C306.784 246.616 306.465 247.03 305.455 247.559L310.095 256.417ZM315.311 251.84C316.534 249.943 317.17 247.808 317.17 245.543H307.17C307.17 245.866 307.098 246.124 306.905 246.423L315.311 251.84ZM317.17 245.543C317.17 241.795 315.472 238.634 312.41 236.521L306.73 244.751C307.027 244.956 307.093 245.085 307.102 245.101C307.109 245.114 307.17 245.221 307.17 245.543H317.17ZM312.449 236.548C309.464 234.446 305.544 233.805 301.55 233.805V243.805C304.782 243.805 306.209 244.385 306.691 244.724L312.449 236.548ZM301.55 233.805C299.733 233.805 297.853 233.93 295.913 234.173L297.153 244.096C298.728 243.899 300.192 243.805 301.55 243.805V233.805ZM295.981 234.165C294.182 234.365 292.361 234.589 290.516 234.838L291.856 244.748C293.624 244.509 295.367 244.295 297.085 244.104L295.981 234.165ZM290.507 234.84C288.744 235.081 286.994 235.311 285.256 235.528L286.496 245.451C288.274 245.228 290.063 244.994 291.865 244.747L290.507 234.84ZM285.316 235.521C283.744 235.698 282.297 235.782 280.969 235.782V245.782C282.717 245.782 284.541 245.671 286.436 245.458L285.316 235.521ZM280.969 235.782C278.839 235.782 276.825 235.509 274.912 234.977L272.231 244.61C275.054 245.396 277.972 245.782 280.969 245.782V235.782ZM274.925 234.98C273.099 234.467 271.551 233.72 270.231 232.769L264.388 240.885C266.729 242.571 269.356 243.802 272.218 244.607L274.925 234.98ZM270.256 232.788C269.052 231.909 268.104 230.827 267.381 229.497L258.594 234.27C260.02 236.894 261.953 239.108 264.362 240.866L270.256 232.788ZM267.381 229.497C266.768 228.368 266.376 226.909 266.376 224.962H256.376C256.376 228.289 257.059 231.443 258.594 234.27L267.381 229.497ZM266.376 224.962C266.376 223.848 266.524 222.735 266.826 221.614L257.172 219.008C256.644 220.963 256.376 222.951 256.376 224.962H266.376ZM266.807 221.685C267.098 220.666 267.556 219.671 268.21 218.69L259.89 213.143C258.688 214.945 257.779 216.88 257.191 218.937L266.807 221.685ZM268.199 218.706C268.838 217.756 269.701 216.814 270.843 215.896L264.581 208.1C262.744 209.575 261.166 211.245 259.901 213.127L268.199 218.706ZM270.882 215.865C271.935 215.001 273.294 214.186 275.026 213.461L271.165 204.236C268.697 205.269 266.467 206.553 264.542 208.131L270.882 215.865ZM275.007 213.469C276.733 212.755 278.814 212.16 281.291 211.721L279.548 201.874C276.507 202.413 273.706 203.185 271.183 204.229L275.007 213.469ZM281.325 211.715C283.746 211.269 286.596 211.029 289.904 211.029V201.029C286.132 201.029 282.659 201.301 279.514 201.881L281.325 211.715ZM289.904 211.029C292.277 211.029 294.665 211.164 297.069 211.437L298.194 201.5C295.422 201.186 292.659 201.029 289.904 201.029V211.029ZM297.115 211.442C299.539 211.693 301.882 212.058 304.148 212.533L306.203 202.747C303.585 202.197 300.9 201.781 298.147 201.495L297.115 211.442ZM304.157 212.535C306.458 213.014 308.653 213.592 310.745 214.266L313.815 204.749C311.365 203.959 308.824 203.292 306.193 202.745L304.157 212.535ZM310.791 214.281C312.891 214.936 314.812 215.66 316.563 216.448L320.667 207.329C318.512 206.359 316.21 205.496 313.768 204.735L310.791 214.281ZM314.221 209.502L309.131 218.877L317.919 223.649L323.009 214.274L314.221 209.502ZM315.536 216.686C313.744 215.898 311.84 215.189 309.83 214.554L306.819 224.09C308.52 224.627 310.083 225.212 311.514 225.841L315.536 216.686ZM309.887 214.573C307.857 213.905 305.748 213.335 303.562 212.861L301.442 222.634C303.309 223.039 305.082 223.519 306.762 224.072L309.887 214.573ZM303.562 212.861C301.361 212.384 299.094 212.015 296.761 211.753L295.645 221.691C297.658 221.917 299.59 222.232 301.442 222.634L303.562 212.861ZM296.823 211.761C294.462 211.466 292.057 211.319 289.611 211.319V221.319C291.658 221.319 293.648 221.442 295.583 221.684L296.823 211.761ZM289.611 211.319C286.21 211.319 283.174 211.562 280.61 212.136L282.792 221.895C284.378 221.54 286.616 221.319 289.611 221.319V211.319ZM280.598 212.138C278.252 212.669 276.059 213.42 274.221 214.522L279.366 223.097C279.97 222.735 281.049 222.289 282.804 221.892L280.598 212.138ZM274.285 214.484C272.554 215.488 270.893 216.885 269.832 218.849L278.629 223.604C278.544 223.761 278.592 223.547 279.303 223.135L274.285 214.484ZM269.809 218.893C269.015 220.396 268.535 222.07 268.535 223.863H278.535C278.535 223.869 278.533 223.858 278.543 223.821C278.554 223.781 278.581 223.695 278.652 223.56L269.809 218.893ZM268.535 223.863C268.535 227.376 270.246 230.222 272.936 232.143L278.748 224.006C278.612 223.909 278.54 223.839 278.509 223.804C278.478 223.772 278.482 223.768 278.497 223.796C278.512 223.824 278.526 223.859 278.533 223.889C278.54 223.917 278.535 223.913 278.535 223.863H268.535ZM272.979 232.174C275.754 234.112 279.325 234.686 282.873 234.686V224.686C280.122 224.686 279.006 224.186 278.705 223.975L272.979 232.174ZM282.873 234.686C284.358 234.686 285.99 234.587 287.751 234.403L286.711 224.457C285.201 224.615 283.927 224.686 282.873 224.686V234.686ZM287.815 234.395C289.482 234.199 291.222 233.991 293.035 233.771L291.827 223.844C290.027 224.063 288.3 224.269 286.647 224.464L287.815 234.395ZM293.027 233.772C294.809 233.558 296.617 233.367 298.45 233.201L297.545 223.242C295.618 223.417 293.715 223.617 291.835 223.843L293.027 233.772ZM298.508 233.195C300.255 233.016 301.927 232.928 303.527 232.928V222.928C301.563 222.928 299.549 223.036 297.487 223.247L298.508 233.195ZM303.527 232.928C306.534 232.928 309.024 233.267 311.059 233.862L313.866 224.264C310.726 223.346 307.259 222.928 303.527 222.928V232.928ZM311.072 233.866C313.175 234.475 314.734 235.292 315.881 236.217L322.155 228.429C319.787 226.522 316.975 225.165 313.854 224.261L311.072 233.866ZM315.915 236.243C317.059 237.149 317.885 238.212 318.452 239.47L327.567 235.357C326.328 232.611 324.493 230.28 322.122 228.403L315.915 236.243ZM318.462 239.491C319.03 240.734 319.365 242.233 319.365 244.078H329.365C329.365 240.992 328.796 238.047 327.558 235.336L318.462 239.491ZM319.365 244.078C319.365 246.563 318.795 248.607 317.759 250.349L326.356 255.458C328.396 252.025 329.365 248.185 329.365 244.078H319.365ZM317.752 250.362C316.691 252.158 315.118 253.779 312.876 255.191L318.202 263.654C321.624 261.501 324.396 258.777 326.363 255.446L317.752 250.362ZM312.886 255.184C310.64 256.59 307.786 257.751 304.223 258.581L306.494 268.32C310.89 267.295 314.822 265.77 318.192 263.66L312.886 255.184ZM304.252 258.575C300.698 259.381 296.646 259.806 292.065 259.806V269.806C297.25 269.806 302.06 269.327 306.465 268.327L304.252 258.575ZM292.065 259.806C289.057 259.806 286.132 259.612 283.285 259.228L281.948 269.138C285.254 269.584 288.627 269.806 292.065 269.806V259.806ZM283.247 259.223C280.368 258.857 277.622 258.334 275.006 257.658L272.502 267.339C275.551 268.128 278.713 268.728 281.987 269.143L283.247 259.223ZM275.056 257.671C272.427 256.962 269.927 256.132 267.555 255.183L263.841 264.468C266.595 265.569 269.467 266.521 272.453 267.326L275.056 257.671ZM267.608 255.205C265.248 254.229 263.086 253.174 261.116 252.045L256.144 260.721C258.519 262.082 261.069 263.322 263.787 264.446L267.608 255.205ZM262.808 259.13L268.997 249.718L260.641 244.224L254.452 253.636L262.808 259.13ZM354.394 216.942H359.394V211.942H354.394V216.942ZM333.264 216.942H328.264V221.942H333.264V216.942ZM333.264 206.761V201.761H328.264V206.761H333.264ZM387.133 206.761H392.133V201.761H387.133V206.761ZM387.133 216.942V221.942H392.133V216.942H387.133ZM366.003 216.942V211.942H361.003V216.942H366.003ZM366.003 264V269H371.003V264H366.003ZM354.394 264H349.394V269H354.394V264ZM354.394 211.942H333.264V221.942H354.394V211.942ZM338.264 216.942V206.761H328.264V216.942H338.264ZM333.264 211.761H387.133V201.761H333.264V211.761ZM382.133 206.761V216.942H392.133V206.761H382.133ZM387.133 211.942H366.003V221.942H387.133V211.942ZM361.003 216.942V264H371.003V216.942H361.003ZM366.003 259H354.394V269H366.003V259ZM359.394 264V216.942H349.394V264H359.394ZM419.067 206.761V201.761H415.891L414.541 204.636L419.067 206.761ZM431.372 206.761L435.873 204.584L434.507 201.761H431.372V206.761ZM459.057 264V269H467.03L463.558 261.823L459.057 264ZM446.862 264L442.346 266.146L443.703 269H446.862V264ZM442.285 254.369L446.801 252.222L445.444 249.369H442.285V254.369ZM408.85 254.369V249.369H405.646L404.307 252.279L408.85 254.369ZM404.418 264V269H407.622L408.961 266.09L404.418 264ZM392.187 264L387.661 261.875L384.315 269H392.187V264ZM437.707 244.811V249.811H445.625L442.222 242.661L437.707 244.811ZM425.329 218.81L429.844 216.66L425.268 207.049L420.792 216.707L425.329 218.81ZM413.281 244.811L408.744 242.708L405.453 249.811H413.281V244.811ZM419.067 211.761H431.372V201.761H419.067V211.761ZM426.87 208.938L454.556 266.177L463.558 261.823L435.873 204.584L426.87 208.938ZM459.057 259H446.862V269H459.057V259ZM451.378 261.854L446.801 252.222L437.769 256.515L442.346 266.146L451.378 261.854ZM442.285 249.369H408.85V259.369H442.285V249.369ZM404.307 252.279L399.876 261.91L408.961 266.09L413.392 256.458L404.307 252.279ZM404.418 259H392.187V269H404.418V259ZM396.713 266.125L423.593 208.887L414.541 204.636L387.661 261.875L396.713 266.125ZM442.222 242.661L429.844 216.66L420.815 220.959L433.192 246.96L442.222 242.661ZM420.792 216.707L408.744 242.708L417.817 246.913L429.866 220.912L420.792 216.707ZM413.281 249.811H437.707V239.811H413.281V249.811ZM467.956 206.761V201.761H462.956V206.761H467.956ZM508.496 208.153L507.112 212.958L507.129 212.963L507.146 212.967L508.496 208.153ZM521.24 218.443L516.616 220.347L516.624 220.366L516.632 220.386L521.24 218.443ZM522.045 232.982L526.873 234.282L526.876 234.274L526.878 234.266L522.045 232.982ZM519.665 238.255L515.505 235.482L515.49 235.504L515.476 235.526L519.665 238.255ZM515.673 242.577L518.731 246.533L518.749 246.519L518.768 246.504L515.673 242.577ZM509.997 245.689L508.213 241.019L502.308 243.274L505.862 248.501L509.997 245.689ZM522.448 264V269H531.895L526.583 261.188L522.448 264ZM508.239 264L504.07 266.76L505.553 269H508.239V264ZM497.473 247.74L501.642 244.98L500.159 242.74H497.473V247.74ZM497.143 247.74L497.133 252.74H497.143V247.74ZM479.565 247.704L479.575 242.704L474.565 242.693V247.704H479.565ZM479.565 264V269H484.565V264H479.565ZM467.956 264H462.956V269H467.956V264ZM503.112 236.9L501.637 232.123L501.627 232.126L501.617 232.129L503.112 236.9ZM507.25 234.74L504.066 230.885L504.045 230.902L504.025 230.92L507.25 234.74ZM509.741 231.371L505.128 229.442L505.119 229.463L505.11 229.484L509.741 231.371ZM507.287 219.505L504.164 223.41L504.177 223.42L504.19 223.431L507.287 219.505ZM479.565 216.869V211.869H474.565V216.869H479.565ZM479.565 237.669H474.565V242.669H479.565V237.669ZM467.956 211.761H497.07V201.761H467.956V211.761ZM497.07 211.761C501.133 211.761 504.454 212.192 507.112 212.958L509.879 203.348C506.092 202.258 501.796 201.761 497.07 201.761V211.761ZM507.146 212.967C509.849 213.725 511.867 214.768 513.354 215.982L519.677 208.234C516.916 205.981 513.587 204.387 509.845 203.338L507.146 212.967ZM513.354 215.982C514.847 217.2 515.913 218.639 516.616 220.347L525.863 216.54C524.516 213.267 522.432 210.483 519.677 208.234L513.354 215.982ZM516.632 220.386C517.384 222.168 517.814 224.312 517.814 226.903H527.814C527.814 223.195 527.195 219.699 525.847 216.501L516.632 220.386ZM517.814 226.903C517.814 228.621 517.608 230.214 517.213 231.697L526.878 234.266C527.509 231.893 527.814 229.433 527.814 226.903H517.814ZM517.217 231.682C516.843 233.072 516.272 234.331 515.505 235.482L523.825 241.029C525.206 238.958 526.222 236.701 526.873 234.282L517.217 231.682ZM515.476 235.526C514.742 236.651 513.791 237.694 512.579 238.649L518.768 246.504C520.778 244.92 522.488 243.082 523.854 240.985L515.476 235.526ZM512.616 238.62C511.442 239.527 509.992 240.339 508.213 241.019L511.781 250.36C514.348 249.38 516.682 248.116 518.731 246.533L512.616 238.62ZM505.862 248.501L518.314 266.812L526.583 261.188L514.132 242.878L505.862 248.501ZM522.448 259H508.239V269H522.448V259ZM512.408 261.24L501.642 244.98L493.304 250.501L504.07 266.76L512.408 261.24ZM497.473 242.74H497.143V252.74H497.473V242.74ZM497.153 242.74L479.575 242.704L479.555 252.704L497.133 252.74L497.153 242.74ZM474.565 247.704V264H484.565V247.704H474.565ZM479.565 259H467.956V269H479.565V259ZM472.956 264V206.761H462.956V264H472.956ZM497.363 242.669C499.932 242.669 502.374 242.372 504.608 241.672L501.617 232.129C500.579 232.454 499.188 232.669 497.363 232.669V242.669ZM504.588 241.678C506.759 241.007 508.769 240.001 510.476 238.56L504.025 230.92C503.534 231.334 502.786 231.768 501.637 232.123L504.588 241.678ZM510.435 238.595C512.18 237.153 513.515 235.359 514.371 233.257L505.11 229.484C504.893 230.019 504.567 230.471 504.066 230.885L510.435 238.595ZM514.354 233.3C515.2 231.275 515.583 229.119 515.583 226.903H505.583C505.583 227.958 505.404 228.781 505.128 229.442L514.354 233.3ZM515.583 226.903C515.583 222.421 513.965 218.405 510.384 215.58L504.19 223.431C505.004 224.073 505.583 224.988 505.583 226.903H515.583ZM510.411 215.601C506.946 212.829 502.308 211.869 497.363 211.869V221.869C501.255 221.869 503.234 222.666 504.164 223.41L510.411 215.601ZM497.363 211.869H479.565V221.869H497.363V211.869ZM474.565 216.869V237.669H484.565V216.869H474.565ZM479.565 242.669H497.363V232.669H479.565V242.669ZM561.486 206.761V201.761H556.486V206.761H561.486ZM573.095 206.761H578.095V201.761H573.095V206.761ZM573.095 253.819H568.095V258.819H573.095V253.819ZM606.384 253.819H611.384V248.819H606.384V253.819ZM606.384 264V269H611.384V264H606.384ZM561.486 264H556.486V269H561.486V264ZM561.486 211.761H573.095V201.761H561.486V211.761ZM568.095 206.761V253.819H578.095V206.761H568.095ZM573.095 258.819H606.384V248.819H573.095V258.819ZM601.384 253.819V264H611.384V253.819H601.384ZM606.384 259H561.486V269H606.384V259ZM566.486 264V206.761H556.486V264H566.486ZM616.198 206.761V201.761H611.198V206.761H616.198ZM627.88 206.761H632.88V201.761H627.88V206.761ZM627.88 264V269H632.88V264H627.88ZM616.198 264H611.198V269H616.198V264ZM616.198 211.761H627.88V201.761H616.198V211.761ZM622.88 206.761V264H632.88V206.761H622.88ZM627.88 259H616.198V269H627.88V259ZM621.198 264V206.761H611.198V264H621.198ZM642.639 206.761V201.761H637.639V206.761H642.639ZM654.248 206.761L656.567 202.332L655.477 201.761H654.248V206.761ZM689.917 225.438L687.597 229.868L694.917 233.7V225.438H689.917ZM689.917 206.761V201.761H684.917V206.761H689.917ZM701.525 206.761H706.525V201.761H701.525V206.761ZM701.525 264V269H706.525V264H701.525ZM689.917 264H684.917V269H689.917V264ZM689.917 237.743H694.917V234.709L692.225 233.308L689.917 237.743ZM654.248 219.176L656.556 214.741L649.248 210.936V219.176H654.248ZM654.248 264V269H659.248V264H654.248ZM642.639 264H637.639V269H642.639V264ZM642.639 211.761H654.248V201.761H642.639V211.761ZM651.928 211.191L687.597 229.868L692.236 221.008L656.567 202.332L651.928 211.191ZM694.917 225.438V206.761H684.917V225.438H694.917ZM689.917 211.761H701.525V201.761H689.917V211.761ZM696.525 206.761V264H706.525V206.761H696.525ZM701.525 259H689.917V269H701.525V259ZM694.917 264V237.743H684.917V264H694.917ZM692.225 233.308L656.556 214.741L651.939 223.611L687.608 242.178L692.225 233.308ZM649.248 219.176V264H659.248V219.176H649.248ZM654.248 259H642.639V269H654.248V259ZM647.639 264V206.761H637.639V264H647.639ZM717.712 206.761V201.761H712.712V206.761H717.712ZM766.455 206.761H771.455V201.761H766.455V206.761ZM766.455 216.942V221.942H771.455V216.942H766.455ZM729.321 216.942V211.942H724.321V216.942H729.321ZM729.321 228.368H724.321V233.368H729.321V228.368ZM762.207 228.368H767.207V223.368H762.207V228.368ZM762.207 237.926V242.926H767.207V237.926H762.207ZM729.321 237.926V232.926H724.321V237.926H729.321ZM729.321 253.856H724.321V258.856H729.321V253.856ZM767.224 253.856H772.224V248.856H767.224V253.856ZM767.224 264V269H772.224V264H767.224ZM717.712 264H712.712V269H717.712V264ZM717.712 211.761H766.455V201.761H717.712V211.761ZM761.455 206.761V216.942H771.455V206.761H761.455ZM766.455 211.942H729.321V221.942H766.455V211.942ZM724.321 216.942V228.368H734.321V216.942H724.321ZM729.321 233.368H762.207V223.368H729.321V233.368ZM757.207 228.368V237.926H767.207V228.368H757.207ZM762.207 232.926H729.321V242.926H762.207V232.926ZM724.321 237.926V253.856H734.321V237.926H724.321ZM729.321 258.856H767.224V248.856H729.321V258.856ZM762.224 253.856V264H772.224V253.856H762.224ZM767.224 259H717.712V269H767.224V259ZM722.712 264V206.761H712.712V264H722.712Z" fill="#F5F3F2" mask="url(#path-4-outside-1_1_2)"/>
<path d="M258.72 339.488H272.672V350.752H290.08V364.576H272.672V379.168H290.08V392.992H278.56C279.968 403.872 284.832 410.784 290.08 416.16V436.896C282.144 431.008 276.512 423.712 272.672 415.392V444.448H258.72V415.392C254.88 423.712 249.248 431.008 241.312 436.896V416.16C246.56 410.784 251.424 403.872 252.832 392.992H242.464L244.128 395.808L232.224 402.848L229.408 398.112V444.448H215.584V411.424C212.896 415.904 209.312 419.488 204.32 422.048V403.104C210.848 397.344 213.92 386.848 214.432 373.92H204.32V360.096H215.584V350.752H229.408V360.096H233.76V368.8C235.808 364.192 239.648 353.44 239.648 339.488H253.472C253.472 343.584 253.216 347.296 252.832 350.752H258.72V339.488ZM241.312 379.168H258.72V364.576H250.144C248.096 371.872 245.792 375.712 245.792 375.712L233.76 371.616V373.92H229.408V384.544L235.296 381.088L241.312 391.072V379.168ZM377.351 339.488H388.999L390.407 352.8H392.455V366.624H374.535C376.199 405.536 382.215 419.232 392.455 437.664L380.423 444.448C369.159 424.096 362.631 405.92 360.711 366.624H306.823V352.8H360.199C360.199 348.576 360.071 344.224 360.071 339.488H373.895C373.895 344.224 374.023 348.576 374.023 352.8H378.759L377.351 339.488ZM356.743 422.176V436C356.743 436 340.743 444.448 306.695 444.448V430.624C312.967 430.624 318.471 430.368 323.591 429.856V389.28H306.695V375.456H354.183V389.28H337.415V427.936C350.215 425.376 356.743 422.176 356.743 422.176ZM494.83 350.752V364.576C473.198 361.888 458.99 356.128 451.95 352.672C444.782 356.128 430.574 361.888 409.07 364.576V350.752C435.822 347.296 451.95 336.928 451.95 336.928C451.95 336.928 467.95 347.296 494.83 350.752ZM426.35 381.984V368.16H477.55V381.984H426.35ZM416.238 444.448V430.624L428.014 405.792H412.91V391.968H490.99V405.792H443.246L431.726 430.24C452.59 429.472 467.182 427.04 473.326 425.888L470.894 414.496H485.102L491.502 444.448H477.294L476.142 439.2C473.582 439.84 454.51 444.448 416.238 444.448ZM540.117 444.448H526.293V410.4C522.069 413.6 517.077 416.416 511.445 418.976V402.848C528.853 393.632 536.661 376.864 536.661 362.784H511.445V348.96H523.989V339.488H537.813V348.96H550.485V362.784C550.485 370.72 548.693 381.984 542.165 392.864L555.989 405.536L546.645 415.776L540.117 409.76V444.448ZM567.381 339.488H581.205V372.512H597.205V386.336H581.205V430.624H597.205V444.448H551.381V430.624H567.381V386.336H553.941V372.512H567.381V339.488ZM654.14 382.368H627.644V444.448H613.82V342.048H654.14V382.368ZM685.756 382.368H659.26V342.048H699.58V421.92C699.58 437.92 692.668 444.448 678.588 444.448V432.8L672.572 440.096C672.572 440.096 663.484 436.256 656.7 426.784C650.044 436.256 640.956 440.096 640.956 440.096L632.124 429.472C632.124 429.472 638.012 427.04 643.004 421.536H633.916V409.632H649.276C649.532 408.224 649.788 406.816 649.788 405.28H635.196V393.248H639.42L637.756 386.208H651.964L653.628 393.248H659.772L661.308 386.208H675.516L673.98 393.248H678.076V405.28H663.74C663.74 406.816 663.996 408.224 664.252 409.632H679.356V421.536H670.524C675.516 427.04 681.404 429.472 681.404 429.472L680.636 430.496C683.964 429.856 685.756 427.68 685.756 421.92V382.368ZM640.316 353.056H627.644V358.176H640.316V353.056ZM685.756 353.056H673.084V358.176H685.756V353.056ZM640.316 366.24H627.644V371.36H640.316V366.24ZM685.756 366.24H673.084V371.36H685.756V366.24ZM720.035 342.048H798.115V384.544H720.035V342.048ZM733.859 359.2H784.291V354.592H733.859V359.2ZM733.859 372H784.291V367.392H733.859V372ZM765.987 430.624H801.955V444.448H716.195V430.624H752.163V424.48H735.267V413.216H752.163V407.072H734.243C733.091 411.04 731.555 414.752 729.123 417.952L716.195 413.216C721.187 404.896 722.467 395.936 722.467 388.512H736.291C736.291 390.176 736.163 391.712 736.163 393.248H752.163V388.512H765.987V393.248H798.115V407.072H765.987V413.216H794.275V424.48H765.987V430.624Z" fill="white"/>
<defs>
<filter id="filter0_d_1_2" x="122.713" y="19.9419" width="779.573" height="304.146" filterUnits="userSpaceOnUse" color-interpolation-filters="sRGB">
<feFlood flood-opacity="0" result="BackgroundImageFix"/>
<feColorMatrix in="SourceAlpha" type="matrix" values="0 0 0 0 0 0 0 0 0 0 0 0 0 0 0 0 0 0 127 0" result="hardAlpha"/>
<feOffset dy="4"/>
<feGaussianBlur stdDeviation="2"/>
<feComposite in2="hardAlpha" operator="out"/>
<feColorMatrix type="matrix" values="0 0 0 0 0 0 0 0 0 0 0 0 0 0 0 0 0 0 0.25 0"/>
<feBlend mode="normal" in2="BackgroundImageFix" result="effect1_dropShadow_1_2"/>
<feBlend mode="normal" in="SourceGraphic" in2="effect1_dropShadow_1_2" result="shape"/>
</filter>
</defs>
</svg>
