<svg width="1024" height="319" viewBox="0 0 1024 319" fill="none" xmlns="http://www.w3.org/2000/svg">
<g clip-path="url(#clip0_103_2)">
<rect width="1024" height="319" fill="white"/>
<g filter="url(#filter0_d_103_2)">
<path d="M512 4L686.549 92.6386L998.941 119.394L794.426 200.931L812.946 306.106L512 267.86L211.054 306.106L229.574 200.931L25.0591 119.394L337.451 92.6386L512 4Z" fill="#FEDD6B"/>
<path d="M686.122 97.6204L977.466 122.573L792.574 196.287L788.796 197.793L789.501 201.798L806.845 300.29L512.63 262.9L512 262.82L511.37 262.9L217.155 300.29L234.499 201.798L235.204 197.793L231.426 196.287L46.534 122.573L337.878 97.6204L338.848 97.5373L339.715 97.0967L512 9.60776L684.285 97.0967L685.152 97.5373L686.122 97.6204Z" stroke="#003F67" stroke-width="10"/>
</g>
<mask id="path-3-outside-1_103_2" maskUnits="userSpaceOnUse" x="188" y="139" width="648" height="63" fill="black">
<rect fill="white" x="188" y="139" width="648" height="63"/>
<path d="M193.504 196V145.091H205.809V166.618H206.48L223.309 145.091H237.801L219.754 167.811L238.124 196H223.408L210.731 175.989L205.809 182.204V196H193.504ZM253.667 196H240.442L257.619 145.091H274.001L291.177 196H277.953L265.996 157.918H265.599L253.667 196ZM251.902 175.964H279.544V185.311H251.902V175.964ZM339.986 145.091V196H329.546L309.286 166.618H308.963V196H296.659V145.091H307.248L327.284 174.423H327.706V145.091H339.986ZM375.241 160.354C375.075 158.531 374.338 157.114 373.028 156.103C371.736 155.076 369.888 154.562 367.485 154.562C365.894 154.562 364.569 154.769 363.508 155.183C362.447 155.598 361.652 156.169 361.122 156.898C360.591 157.611 360.318 158.431 360.301 159.359C360.268 160.122 360.417 160.793 360.749 161.373C361.097 161.953 361.594 162.467 362.24 162.914C362.903 163.345 363.698 163.726 364.627 164.058C365.555 164.389 366.599 164.679 367.759 164.928L372.134 165.922C374.653 166.469 376.873 167.198 378.796 168.109C380.734 169.021 382.359 170.106 383.668 171.366C384.993 172.625 385.996 174.075 386.676 175.716C387.355 177.357 387.703 179.196 387.72 181.234C387.703 184.449 386.891 187.209 385.283 189.512C383.676 191.816 381.364 193.58 378.348 194.807C375.349 196.033 371.728 196.646 367.485 196.646C363.226 196.646 359.514 196.008 356.349 194.732C353.184 193.456 350.723 191.517 348.966 188.915C347.209 186.314 346.306 183.024 346.256 179.047H358.039C358.139 180.688 358.578 182.055 359.357 183.148C360.136 184.242 361.204 185.071 362.563 185.634C363.939 186.198 365.53 186.479 367.336 186.479C368.993 186.479 370.402 186.256 371.562 185.808C372.738 185.361 373.642 184.739 374.271 183.944C374.901 183.148 375.224 182.237 375.241 181.21C375.224 180.248 374.926 179.428 374.346 178.749C373.766 178.053 372.871 177.456 371.661 176.959C370.468 176.445 368.944 175.973 367.087 175.542L361.768 174.299C357.36 173.288 353.888 171.656 351.352 169.402C348.817 167.132 347.557 164.066 347.574 160.205C347.557 157.056 348.403 154.297 350.109 151.927C351.816 149.557 354.178 147.709 357.194 146.384C360.21 145.058 363.649 144.395 367.51 144.395C371.454 144.395 374.876 145.066 377.776 146.408C380.693 147.734 382.955 149.598 384.563 152.001C386.17 154.404 386.99 157.188 387.024 160.354H375.241ZM403.374 196H390.149L407.326 145.091H423.708L440.884 196H427.66L415.703 157.918H415.306L403.374 196ZM401.609 175.964H429.251V185.311H401.609V175.964ZM458.67 145.091V196H446.366V145.091H458.67ZM508.952 160.354C508.786 158.531 508.049 157.114 506.739 156.103C505.447 155.076 503.599 154.562 501.196 154.562C499.605 154.562 498.279 154.769 497.219 155.183C496.158 155.598 495.363 156.169 494.832 156.898C494.302 157.611 494.029 158.431 494.012 159.359C493.979 160.122 494.128 160.793 494.46 161.373C494.808 161.953 495.305 162.467 495.951 162.914C496.614 163.345 497.409 163.726 498.337 164.058C499.265 164.389 500.31 164.679 501.47 164.928L505.845 165.922C508.363 166.469 510.584 167.198 512.506 168.109C514.445 169.021 516.069 170.106 517.379 171.366C518.704 172.625 519.707 174.075 520.386 175.716C521.066 177.357 521.414 179.196 521.43 181.234C521.414 184.449 520.602 187.209 518.994 189.512C517.387 191.816 515.075 193.58 512.059 194.807C509.06 196.033 505.439 196.646 501.196 196.646C496.937 196.646 493.225 196.008 490.06 194.732C486.895 193.456 484.434 191.517 482.677 188.915C480.92 186.314 480.017 183.024 479.967 179.047H491.75C491.85 180.688 492.289 182.055 493.068 183.148C493.846 184.242 494.915 185.071 496.274 185.634C497.65 186.198 499.241 186.479 501.047 186.479C502.704 186.479 504.113 186.256 505.273 185.808C506.449 185.361 507.353 184.739 507.982 183.944C508.612 183.148 508.935 182.237 508.952 181.21C508.935 180.248 508.637 179.428 508.057 178.749C507.477 178.053 506.582 177.456 505.372 176.959C504.179 176.445 502.654 175.973 500.798 175.542L495.479 174.299C491.071 173.288 487.599 171.656 485.063 169.402C482.528 167.132 481.268 164.066 481.285 160.205C481.268 157.056 482.113 154.297 483.82 151.927C485.527 149.557 487.889 147.709 490.905 146.384C493.921 145.058 497.36 144.395 501.221 144.395C505.165 144.395 508.587 145.066 511.487 146.408C514.404 147.734 516.666 149.598 518.274 152.001C519.881 154.404 520.701 157.188 520.734 160.354H508.952ZM525.979 155.084V145.091H569.009V155.084H553.572V196H541.441V155.084H525.979ZM579.673 196H566.448L583.625 145.091H600.006L617.183 196H603.959L592.002 157.918H591.604L579.673 196ZM577.908 175.964H605.55V185.311H577.908V175.964ZM622.665 196V145.091H643.694C647.506 145.091 650.795 145.779 653.563 147.154C656.347 148.513 658.493 150.469 660.001 153.021C661.509 155.556 662.263 158.564 662.263 162.044C662.263 165.574 661.493 168.573 659.951 171.043C658.41 173.495 656.223 175.368 653.389 176.661C650.555 177.937 647.199 178.575 643.321 178.575H630.022V168.88H641.035C642.891 168.88 644.44 168.64 645.683 168.159C646.942 167.662 647.895 166.916 648.542 165.922C649.188 164.911 649.511 163.618 649.511 162.044C649.511 160.47 649.188 159.169 648.542 158.141C647.895 157.097 646.942 156.318 645.683 155.805C644.424 155.274 642.874 155.009 641.035 155.009H634.969V196H622.665ZM651.326 172.733L664.003 196H650.58L638.151 172.733H651.326ZM684.051 196V145.091H696.356V186.007H717.535V196H684.051ZM736.209 145.091V196H723.905V145.091H736.209ZM787.261 145.091V196H776.821L756.562 166.618H756.239V196H743.934V145.091H754.524L774.559 174.423H774.982V145.091H787.261ZM794.998 196V145.091H830.496V155.084H807.303V165.524H828.681V175.542H807.303V186.007H830.496V196H794.998Z"/>
</mask>
<path d="M193.504 196V145.091H205.809V166.618H206.48L223.309 145.091H237.801L219.754 167.811L238.124 196H223.408L210.731 175.989L205.809 182.204V196H193.504ZM253.667 196H240.442L257.619 145.091H274.001L291.177 196H277.953L265.996 157.918H265.599L253.667 196ZM251.902 175.964H279.544V185.311H251.902V175.964ZM339.986 145.091V196H329.546L309.286 166.618H308.963V196H296.659V145.091H307.248L327.284 174.423H327.706V145.091H339.986ZM375.241 160.354C375.075 158.531 374.338 157.114 373.028 156.103C371.736 155.076 369.888 154.562 367.485 154.562C365.894 154.562 364.569 154.769 363.508 155.183C362.447 155.598 361.652 156.169 361.122 156.898C360.591 157.611 360.318 158.431 360.301 159.359C360.268 160.122 360.417 160.793 360.749 161.373C361.097 161.953 361.594 162.467 362.24 162.914C362.903 163.345 363.698 163.726 364.627 164.058C365.555 164.389 366.599 164.679 367.759 164.928L372.134 165.922C374.653 166.469 376.873 167.198 378.796 168.109C380.734 169.021 382.359 170.106 383.668 171.366C384.993 172.625 385.996 174.075 386.676 175.716C387.355 177.357 387.703 179.196 387.72 181.234C387.703 184.449 386.891 187.209 385.283 189.512C383.676 191.816 381.364 193.58 378.348 194.807C375.349 196.033 371.728 196.646 367.485 196.646C363.226 196.646 359.514 196.008 356.349 194.732C353.184 193.456 350.723 191.517 348.966 188.915C347.209 186.314 346.306 183.024 346.256 179.047H358.039C358.139 180.688 358.578 182.055 359.357 183.148C360.136 184.242 361.204 185.071 362.563 185.634C363.939 186.198 365.53 186.479 367.336 186.479C368.993 186.479 370.402 186.256 371.562 185.808C372.738 185.361 373.642 184.739 374.271 183.944C374.901 183.148 375.224 182.237 375.241 181.21C375.224 180.248 374.926 179.428 374.346 178.749C373.766 178.053 372.871 177.456 371.661 176.959C370.468 176.445 368.944 175.973 367.087 175.542L361.768 174.299C357.36 173.288 353.888 171.656 351.352 169.402C348.817 167.132 347.557 164.066 347.574 160.205C347.557 157.056 348.403 154.297 350.109 151.927C351.816 149.557 354.178 147.709 357.194 146.384C360.21 145.058 363.649 144.395 367.51 144.395C371.454 144.395 374.876 145.066 377.776 146.408C380.693 147.734 382.955 149.598 384.563 152.001C386.17 154.404 386.99 157.188 387.024 160.354H375.241ZM403.374 196H390.149L407.326 145.091H423.708L440.884 196H427.66L415.703 157.918H415.306L403.374 196ZM401.609 175.964H429.251V185.311H401.609V175.964ZM458.67 145.091V196H446.366V145.091H458.67ZM508.952 160.354C508.786 158.531 508.049 157.114 506.739 156.103C505.447 155.076 503.599 154.562 501.196 154.562C499.605 154.562 498.279 154.769 497.219 155.183C496.158 155.598 495.363 156.169 494.832 156.898C494.302 157.611 494.029 158.431 494.012 159.359C493.979 160.122 494.128 160.793 494.46 161.373C494.808 161.953 495.305 162.467 495.951 162.914C496.614 163.345 497.409 163.726 498.337 164.058C499.265 164.389 500.31 164.679 501.47 164.928L505.845 165.922C508.363 166.469 510.584 167.198 512.506 168.109C514.445 169.021 516.069 170.106 517.379 171.366C518.704 172.625 519.707 174.075 520.386 175.716C521.066 177.357 521.414 179.196 521.43 181.234C521.414 184.449 520.602 187.209 518.994 189.512C517.387 191.816 515.075 193.58 512.059 194.807C509.06 196.033 505.439 196.646 501.196 196.646C496.937 196.646 493.225 196.008 490.06 194.732C486.895 193.456 484.434 191.517 482.677 188.915C480.92 186.314 480.017 183.024 479.967 179.047H491.75C491.85 180.688 492.289 182.055 493.068 183.148C493.846 184.242 494.915 185.071 496.274 185.634C497.65 186.198 499.241 186.479 501.047 186.479C502.704 186.479 504.113 186.256 505.273 185.808C506.449 185.361 507.353 184.739 507.982 183.944C508.612 183.148 508.935 182.237 508.952 181.21C508.935 180.248 508.637 179.428 508.057 178.749C507.477 178.053 506.582 177.456 505.372 176.959C504.179 176.445 502.654 175.973 500.798 175.542L495.479 174.299C491.071 173.288 487.599 171.656 485.063 169.402C482.528 167.132 481.268 164.066 481.285 160.205C481.268 157.056 482.113 154.297 483.82 151.927C485.527 149.557 487.889 147.709 490.905 146.384C493.921 145.058 497.36 144.395 501.221 144.395C505.165 144.395 508.587 145.066 511.487 146.408C514.404 147.734 516.666 149.598 518.274 152.001C519.881 154.404 520.701 157.188 520.734 160.354H508.952ZM525.979 155.084V145.091H569.009V155.084H553.572V196H541.441V155.084H525.979ZM579.673 196H566.448L583.625 145.091H600.006L617.183 196H603.959L592.002 157.918H591.604L579.673 196ZM577.908 175.964H605.55V185.311H577.908V175.964ZM622.665 196V145.091H643.694C647.506 145.091 650.795 145.779 653.563 147.154C656.347 148.513 658.493 150.469 660.001 153.021C661.509 155.556 662.263 158.564 662.263 162.044C662.263 165.574 661.493 168.573 659.951 171.043C658.41 173.495 656.223 175.368 653.389 176.661C650.555 177.937 647.199 178.575 643.321 178.575H630.022V168.88H641.035C642.891 168.88 644.44 168.64 645.683 168.159C646.942 167.662 647.895 166.916 648.542 165.922C649.188 164.911 649.511 163.618 649.511 162.044C649.511 160.47 649.188 159.169 648.542 158.141C647.895 157.097 646.942 156.318 645.683 155.805C644.424 155.274 642.874 155.009 641.035 155.009H634.969V196H622.665ZM651.326 172.733L664.003 196H650.58L638.151 172.733H651.326ZM684.051 196V145.091H696.356V186.007H717.535V196H684.051ZM736.209 145.091V196H723.905V145.091H736.209ZM787.261 145.091V196H776.821L756.562 166.618H756.239V196H743.934V145.091H754.524L774.559 174.423H774.982V145.091H787.261ZM794.998 196V145.091H830.496V155.084H807.303V165.524H828.681V175.542H807.303V186.007H830.496V196H794.998Z" fill="#AD0003"/>
<path d="M193.504 196H188.504V201H193.504V196ZM193.504 145.091V140.091H188.504V145.091H193.504ZM205.809 145.091H210.809V140.091H205.809V145.091ZM205.809 166.618H200.809V171.618H205.809V166.618ZM206.48 166.618V171.618H208.918L210.419 169.697L206.48 166.618ZM223.309 145.091V140.091H220.871L219.37 142.011L223.309 145.091ZM237.801 145.091L241.716 148.201L248.158 140.091H237.801V145.091ZM219.754 167.811L215.839 164.701L213.598 167.522L215.565 170.541L219.754 167.811ZM238.124 196V201H247.351L242.313 193.27L238.124 196ZM223.408 196L219.185 198.676L220.657 201H223.408V196ZM210.731 175.989L214.955 173.313L211.185 167.363L206.811 172.885L210.731 175.989ZM205.809 182.204L201.889 179.1L200.809 180.464V182.204H205.809ZM205.809 196V201H210.809V196H205.809ZM198.504 196V145.091H188.504V196H198.504ZM193.504 150.091H205.809V140.091H193.504V150.091ZM200.809 145.091V166.618H210.809V145.091H200.809ZM205.809 171.618H206.48V161.618H205.809V171.618ZM210.419 169.697L227.248 148.17L219.37 142.011L202.541 163.538L210.419 169.697ZM223.309 150.091H237.801V140.091H223.309V150.091ZM233.886 141.981L215.839 164.701L223.67 170.921L241.716 148.201L233.886 141.981ZM215.565 170.541L233.935 198.73L242.313 193.27L223.943 165.081L215.565 170.541ZM238.124 191H223.408V201H238.124V191ZM227.632 193.324L214.955 173.313L206.507 178.665L219.185 198.676L227.632 193.324ZM206.811 172.885L201.889 179.1L209.729 185.308L214.651 179.094L206.811 172.885ZM200.809 182.204V196H210.809V182.204H200.809ZM205.809 191H193.504V201H205.809V191ZM253.667 196V201H257.34L258.438 197.495L253.667 196ZM240.442 196L235.705 194.402L233.478 201H240.442V196ZM257.619 145.091V140.091H254.029L252.882 143.492L257.619 145.091ZM274.001 145.091L278.738 143.492L277.591 140.091H274.001V145.091ZM291.177 196V201H298.141L295.915 194.402L291.177 196ZM277.953 196L273.183 197.498L274.282 201H277.953V196ZM265.996 157.918L270.767 156.42L269.667 152.918H265.996V157.918ZM265.599 157.918V152.918H261.926L260.827 156.423L265.599 157.918ZM251.902 175.964V170.964H246.902V175.964H251.902ZM279.544 175.964H284.544V170.964H279.544V175.964ZM279.544 185.311V190.311H284.544V185.311H279.544ZM251.902 185.311H246.902V190.311H251.902V185.311ZM253.667 191H240.442V201H253.667V191ZM245.18 197.598L262.357 146.689L252.882 143.492L235.705 194.402L245.18 197.598ZM257.619 150.091H274.001V140.091H257.619V150.091ZM269.263 146.689L286.44 197.598L295.915 194.402L278.738 143.492L269.263 146.689ZM291.177 191H277.953V201H291.177V191ZM282.723 194.502L270.767 156.42L261.226 159.415L273.183 197.498L282.723 194.502ZM265.996 152.918H265.599V162.918H265.996V152.918ZM260.827 156.423L248.896 194.505L258.438 197.495L270.37 159.413L260.827 156.423ZM251.902 180.964H279.544V170.964H251.902V180.964ZM274.544 175.964V185.311H284.544V175.964H274.544ZM279.544 180.311H251.902V190.311H279.544V180.311ZM256.902 185.311V175.964H246.902V185.311H256.902ZM339.986 145.091H344.986V140.091H339.986V145.091ZM339.986 196V201H344.986V196H339.986ZM329.546 196L325.429 198.838L326.92 201H329.546V196ZM309.286 166.618L313.403 163.78L311.912 161.618H309.286V166.618ZM308.963 166.618V161.618H303.963V166.618H308.963ZM308.963 196V201H313.963V196H308.963ZM296.659 196H291.659V201H296.659V196ZM296.659 145.091V140.091H291.659V145.091H296.659ZM307.248 145.091L311.377 142.271L309.888 140.091H307.248V145.091ZM327.284 174.423L323.155 177.243L324.644 179.423H327.284V174.423ZM327.706 174.423V179.423H332.706V174.423H327.706ZM327.706 145.091V140.091H322.706V145.091H327.706ZM334.986 145.091V196H344.986V145.091H334.986ZM339.986 191H329.546V201H339.986V191ZM333.662 193.162L313.403 163.78L305.17 169.456L325.429 198.838L333.662 193.162ZM309.286 161.618H308.963V171.618H309.286V161.618ZM303.963 166.618V196H313.963V166.618H303.963ZM308.963 191H296.659V201H308.963V191ZM301.659 196V145.091H291.659V196H301.659ZM296.659 150.091H307.248V140.091H296.659V150.091ZM303.119 147.911L323.155 177.243L331.412 171.603L311.377 142.271L303.119 147.911ZM327.284 179.423H327.706V169.423H327.284V179.423ZM332.706 174.423V145.091H322.706V174.423H332.706ZM327.706 150.091H339.986V140.091H327.706V150.091ZM375.241 160.354L370.261 160.806L370.675 165.354H375.241V160.354ZM373.028 156.103L369.917 160.017L369.945 160.039L369.973 160.061L373.028 156.103ZM363.508 155.183L361.689 150.526L361.689 150.526L363.508 155.183ZM361.122 156.898L365.133 159.883L365.149 159.861L365.165 159.839L361.122 156.898ZM360.301 159.359L365.297 159.577L365.299 159.513L365.3 159.449L360.301 159.359ZM360.749 161.373L356.407 163.854L356.434 163.9L356.461 163.945L360.749 161.373ZM362.24 162.914L359.394 167.025L359.454 167.067L359.515 167.106L362.24 162.914ZM364.627 164.058L366.308 159.349L366.308 159.349L364.627 164.058ZM367.759 164.928L368.867 160.052L368.837 160.045L368.806 160.039L367.759 164.928ZM372.134 165.922L371.026 170.798L371.049 170.803L371.073 170.808L372.134 165.922ZM378.796 168.109L376.653 172.627L376.661 172.631L376.668 172.634L378.796 168.109ZM383.668 171.366L380.201 174.969L380.213 174.98L380.224 174.991L383.668 171.366ZM386.676 175.716L382.056 177.629L382.056 177.629L386.676 175.716ZM387.72 181.234L392.719 181.26L392.72 181.227L392.719 181.194L387.72 181.234ZM385.283 189.512L381.183 186.651L381.183 186.651L385.283 189.512ZM378.348 194.807L376.465 190.175L376.456 190.179L378.348 194.807ZM356.349 194.732L358.218 190.095L358.218 190.095L356.349 194.732ZM346.256 179.047V174.047H341.194L341.257 179.109L346.256 179.047ZM358.039 179.047L363.03 178.744L362.745 174.047H358.039V179.047ZM359.357 183.148L355.284 186.049L355.284 186.049L359.357 183.148ZM362.563 185.634L360.648 190.253L360.658 190.257L360.668 190.261L362.563 185.634ZM371.562 185.808L369.785 181.135L369.774 181.139L369.763 181.143L371.562 185.808ZM374.271 183.944L370.351 180.84L370.351 180.84L374.271 183.944ZM375.241 181.21L380.24 181.29L380.242 181.207L380.24 181.123L375.241 181.21ZM374.346 178.749L370.505 181.95L370.524 181.972L370.543 181.995L374.346 178.749ZM371.661 176.959L369.684 181.551L369.722 181.568L369.761 181.584L371.661 176.959ZM367.087 175.542L365.95 180.411L365.957 180.412L367.087 175.542ZM361.768 174.299L362.905 169.43L362.895 169.428L362.885 169.426L361.768 174.299ZM351.352 169.402L348.017 173.127L348.024 173.133L348.031 173.139L351.352 169.402ZM347.574 160.205L352.574 160.226L352.574 160.202L352.574 160.178L347.574 160.205ZM350.109 151.927L346.052 149.005L346.052 149.005L350.109 151.927ZM357.194 146.384L359.206 150.961L359.206 150.961L357.194 146.384ZM377.776 146.408L375.676 150.946L375.692 150.953L375.707 150.96L377.776 146.408ZM384.563 152.001L388.718 149.221L388.718 149.221L384.563 152.001ZM387.024 160.354V165.354H392.076L392.023 160.301L387.024 160.354ZM380.22 159.901C379.944 156.857 378.618 154.102 376.084 152.145L369.973 160.061C370.074 160.139 370.106 160.19 370.128 160.232C370.156 160.285 370.229 160.449 370.261 160.806L380.22 159.901ZM376.14 152.189C373.639 150.201 370.52 149.562 367.485 149.562V159.562C369.256 159.562 369.833 159.95 369.917 160.017L376.14 152.189ZM367.485 149.562C365.501 149.562 363.51 149.815 361.689 150.526L365.327 159.841C365.627 159.723 366.288 159.562 367.485 159.562V149.562ZM361.689 150.526C359.97 151.197 358.301 152.276 357.078 153.958L365.165 159.839C365.13 159.888 365.097 159.924 365.071 159.95C365.045 159.975 365.031 159.985 365.034 159.983C365.042 159.977 365.125 159.919 365.327 159.841L361.689 150.526ZM357.11 153.913C355.927 155.504 355.336 157.347 355.302 159.27L365.3 159.449C365.3 159.455 365.297 159.524 365.262 159.629C365.226 159.737 365.176 159.825 365.133 159.883L357.11 153.913ZM355.306 159.142C355.238 160.71 355.544 162.342 356.407 163.854L365.09 158.892C365.18 159.05 365.238 159.21 365.269 159.35C365.299 159.485 365.297 159.568 365.297 159.577L355.306 159.142ZM356.461 163.945C357.229 165.226 358.258 166.238 359.394 167.025L365.086 158.803C365.046 158.775 365.018 158.753 365.001 158.739C364.992 158.731 364.986 158.726 364.981 158.722C364.977 158.718 364.976 158.716 364.976 158.716C364.976 158.716 364.977 158.718 364.981 158.722C364.984 158.725 364.988 158.731 364.994 158.738C365.006 158.753 365.02 158.774 365.036 158.8L356.461 163.945ZM359.515 167.106C360.573 167.794 361.736 168.334 362.945 168.766L366.308 159.349C365.661 159.118 365.233 158.896 364.965 158.722L359.515 167.106ZM362.945 168.766C364.117 169.185 365.378 169.531 366.711 169.817L368.806 160.039C367.82 159.827 366.992 159.593 366.308 159.349L362.945 168.766ZM366.651 169.803L371.026 170.798L373.242 161.046L368.867 160.052L366.651 169.803ZM371.073 170.808C373.294 171.29 375.14 171.91 376.653 172.627L380.938 163.591C378.607 162.486 376.011 161.647 373.194 161.036L371.073 170.808ZM376.668 172.634C378.2 173.354 379.349 174.149 380.201 174.969L387.134 167.762C385.369 166.064 383.269 164.687 380.923 163.584L376.668 172.634ZM380.224 174.991C381.058 175.783 381.652 176.655 382.056 177.629L391.295 173.803C390.34 171.496 388.929 169.468 387.111 167.741L380.224 174.991ZM382.056 177.629C382.456 178.595 382.708 179.785 382.72 181.275L392.719 181.194C392.698 178.607 392.254 176.119 391.295 173.803L382.056 177.629ZM382.72 181.209C382.707 183.561 382.129 185.295 381.183 186.651L389.384 192.373C391.653 189.122 392.698 185.338 392.719 181.26L382.72 181.209ZM381.183 186.651C380.212 188.043 378.732 189.253 376.465 190.175L380.231 199.439C383.996 197.908 387.14 195.588 389.384 192.373L381.183 186.651ZM376.456 190.179C374.211 191.096 371.269 191.646 367.485 191.646V201.646C372.186 201.646 376.486 200.97 380.24 199.435L376.456 190.179ZM367.485 191.646C363.714 191.646 360.662 191.08 358.218 190.095L354.479 199.37C358.366 200.936 362.739 201.646 367.485 201.646V191.646ZM358.218 190.095C355.893 189.158 354.26 187.821 353.11 186.118L344.822 191.713C347.185 195.214 350.474 197.755 354.479 199.37L358.218 190.095ZM353.11 186.118C352.028 184.516 351.297 182.245 351.256 178.984L341.257 179.109C341.316 183.803 342.39 188.112 344.822 191.713L353.11 186.118ZM346.256 184.047H358.039V174.047H346.256V184.047ZM353.048 179.349C353.192 181.715 353.851 184.037 355.284 186.049L363.429 180.248C363.304 180.072 363.085 179.66 363.03 178.744L353.048 179.349ZM355.284 186.049C356.658 187.979 358.509 189.366 360.648 190.253L364.478 181.016C363.9 180.776 363.613 180.506 363.429 180.248L355.284 186.049ZM360.668 190.261C362.759 191.118 365.016 191.479 367.336 191.479V181.479C366.043 181.479 365.118 181.278 364.459 181.007L360.668 190.261ZM367.336 191.479C369.416 191.479 371.471 191.202 373.361 190.473L369.763 181.143C369.333 181.309 368.571 181.479 367.336 181.479V191.479ZM373.339 190.482C375.157 189.79 376.882 188.702 378.192 187.047L370.351 180.84C370.401 180.777 370.32 180.931 369.785 181.135L373.339 190.482ZM378.192 187.047C379.513 185.378 380.206 183.401 380.24 181.29L370.242 181.129C370.241 181.135 370.243 181.079 370.273 180.993C370.304 180.906 370.342 180.852 370.351 180.84L378.192 187.047ZM380.24 181.123C380.205 179.097 379.542 177.134 378.149 175.502L370.543 181.995C370.454 181.891 370.366 181.747 370.306 181.582C370.247 181.422 370.242 181.313 370.242 181.296L380.24 181.123ZM378.187 175.548C376.906 174.01 375.213 173.013 373.562 172.334L369.761 181.584C370.123 181.732 370.345 181.859 370.466 181.939C370.586 182.019 370.574 182.032 370.505 181.95L378.187 175.548ZM373.639 172.366C372.078 171.694 370.243 171.142 368.218 170.671L365.957 180.412C367.644 180.804 368.858 181.196 369.684 181.551L373.639 172.366ZM368.225 170.673L362.905 169.43L360.63 179.168L365.95 180.411L368.225 170.673ZM362.885 169.426C359.033 168.542 356.408 167.206 354.674 165.665L348.031 173.139C351.368 176.106 355.686 178.034 360.65 179.172L362.885 169.426ZM354.688 165.677C353.366 164.494 352.563 162.871 352.574 160.226L342.574 160.183C342.552 165.26 344.267 169.769 348.017 173.127L354.688 165.677ZM352.574 160.178C352.562 158 353.127 156.292 354.167 154.849L346.052 149.005C343.678 152.301 342.552 156.112 342.574 160.231L352.574 160.178ZM354.167 154.849C355.287 153.293 356.9 151.974 359.206 150.961L355.182 141.806C351.456 143.444 348.345 145.821 346.052 149.005L354.167 154.849ZM359.206 150.961C361.488 149.958 364.224 149.395 367.51 149.395V139.395C363.074 139.395 358.932 140.158 355.182 141.806L359.206 150.961ZM367.51 149.395C370.895 149.395 373.57 149.971 375.676 150.946L379.877 141.871C376.183 140.161 372.014 139.395 367.51 139.395V149.395ZM375.707 150.96C377.872 151.944 379.371 153.234 380.407 154.782L388.718 149.221C386.539 145.963 383.514 143.524 379.845 141.857L375.707 150.96ZM380.407 154.782C381.423 156.3 382 158.117 382.024 160.406L392.023 160.301C391.981 156.26 390.917 152.508 388.718 149.221L380.407 154.782ZM387.024 155.354H375.241V165.354H387.024V155.354ZM403.374 196V201H407.047L408.145 197.495L403.374 196ZM390.149 196L385.412 194.402L383.185 201H390.149V196ZM407.326 145.091V140.091H403.736L402.589 143.492L407.326 145.091ZM423.708 145.091L428.445 143.492L427.298 140.091H423.708V145.091ZM440.884 196V201H447.848L445.622 194.402L440.884 196ZM427.66 196L422.89 197.498L423.989 201H427.66V196ZM415.703 157.918L420.474 156.42L419.374 152.918H415.703V157.918ZM415.306 157.918V152.918H411.633L410.534 156.423L415.306 157.918ZM401.609 175.964V170.964H396.609V175.964H401.609ZM429.251 175.964H434.251V170.964H429.251V175.964ZM429.251 185.311V190.311H434.251V185.311H429.251ZM401.609 185.311H396.609V190.311H401.609V185.311ZM403.374 191H390.149V201H403.374V191ZM394.887 197.598L412.064 146.689L402.589 143.492L385.412 194.402L394.887 197.598ZM407.326 150.091H423.708V140.091H407.326V150.091ZM418.97 146.689L436.147 197.598L445.622 194.402L428.445 143.492L418.97 146.689ZM440.884 191H427.66V201H440.884V191ZM432.43 194.502L420.474 156.42L410.933 159.415L422.89 197.498L432.43 194.502ZM415.703 152.918H415.306V162.918H415.703V152.918ZM410.534 156.423L398.603 194.505L408.145 197.495L420.077 159.413L410.534 156.423ZM401.609 180.964H429.251V170.964H401.609V180.964ZM424.251 175.964V185.311H434.251V175.964H424.251ZM429.251 180.311H401.609V190.311H429.251V180.311ZM406.609 185.311V175.964H396.609V185.311H406.609ZM458.67 145.091H463.67V140.091H458.67V145.091ZM458.67 196V201H463.67V196H458.67ZM446.366 196H441.366V201H446.366V196ZM446.366 145.091V140.091H441.366V145.091H446.366ZM453.67 145.091V196H463.67V145.091H453.67ZM458.67 191H446.366V201H458.67V191ZM451.366 196V145.091H441.366V196H451.366ZM446.366 150.091H458.67V140.091H446.366V150.091ZM508.952 160.354L503.972 160.806L504.386 165.354H508.952V160.354ZM506.739 156.103L503.628 160.017L503.656 160.039L503.684 160.061L506.739 156.103ZM497.219 155.183L495.4 150.526L495.4 150.526L497.219 155.183ZM494.832 156.898L498.844 159.883L498.86 159.861L498.876 159.839L494.832 156.898ZM494.012 159.359L499.007 159.577L499.01 159.513L499.011 159.449L494.012 159.359ZM494.46 161.373L490.118 163.854L490.145 163.9L490.172 163.945L494.46 161.373ZM495.951 162.914L493.105 167.025L493.165 167.067L493.226 167.106L495.951 162.914ZM498.337 164.058L500.019 159.349L500.019 159.349L498.337 164.058ZM501.47 164.928L502.578 160.052L502.547 160.045L502.517 160.039L501.47 164.928ZM505.845 165.922L504.736 170.798L504.76 170.803L504.784 170.808L505.845 165.922ZM512.506 168.109L510.364 172.627L510.372 172.631L510.379 172.634L512.506 168.109ZM517.379 171.366L513.912 174.969L513.924 174.98L513.935 174.991L517.379 171.366ZM520.386 175.716L515.767 177.629L515.767 177.629L520.386 175.716ZM521.43 181.234L526.43 181.26L526.431 181.227L526.43 181.194L521.43 181.234ZM518.994 189.512L514.894 186.651L514.894 186.651L518.994 189.512ZM512.059 194.807L510.176 190.175L510.167 190.179L512.059 194.807ZM490.06 194.732L491.929 190.095L491.929 190.095L490.06 194.732ZM479.967 179.047V174.047H474.905L474.968 179.109L479.967 179.047ZM491.75 179.047L496.741 178.744L496.456 174.047H491.75V179.047ZM493.068 183.148L488.995 186.049L488.995 186.049L493.068 183.148ZM496.274 185.634L494.359 190.253L494.369 190.257L494.379 190.261L496.274 185.634ZM505.273 185.808L503.496 181.135L503.485 181.139L503.473 181.143L505.273 185.808ZM507.982 183.944L504.062 180.84L504.062 180.84L507.982 183.944ZM508.952 181.21L513.951 181.29L513.952 181.207L513.951 181.123L508.952 181.21ZM508.057 178.749L504.216 181.95L504.235 181.972L504.254 181.995L508.057 178.749ZM505.372 176.959L503.395 181.551L503.433 181.568L503.472 181.584L505.372 176.959ZM500.798 175.542L499.661 180.411L499.668 180.412L500.798 175.542ZM495.479 174.299L496.616 169.43L496.606 169.428L496.596 169.426L495.479 174.299ZM485.063 169.402L481.728 173.127L481.735 173.133L481.741 173.139L485.063 169.402ZM481.285 160.205L486.285 160.226L486.285 160.202L486.285 160.178L481.285 160.205ZM483.82 151.927L479.763 149.005L479.763 149.005L483.82 151.927ZM490.905 146.384L492.917 150.961L492.917 150.961L490.905 146.384ZM511.487 146.408L509.387 150.946L509.403 150.953L509.418 150.96L511.487 146.408ZM518.274 152.001L522.429 149.221L522.429 149.221L518.274 152.001ZM520.734 160.354V165.354H525.787L525.734 160.301L520.734 160.354ZM513.931 159.901C513.655 156.857 512.329 154.102 509.795 152.145L503.684 160.061C503.785 160.139 503.817 160.19 503.839 160.232C503.867 160.285 503.94 160.449 503.972 160.806L513.931 159.901ZM509.851 152.189C507.35 150.201 504.231 149.562 501.196 149.562V159.562C502.967 159.562 503.544 159.95 503.628 160.017L509.851 152.189ZM501.196 149.562C499.212 149.562 497.221 149.815 495.4 150.526L499.038 159.841C499.338 159.723 499.998 159.562 501.196 159.562V149.562ZM495.4 150.526C493.681 151.197 492.012 152.276 490.789 153.958L498.876 159.839C498.841 159.888 498.808 159.924 498.782 159.95C498.756 159.975 498.742 159.985 498.745 159.983C498.753 159.977 498.836 159.919 499.038 159.841L495.4 150.526ZM490.821 153.913C489.638 155.504 489.047 157.347 489.013 159.27L499.011 159.449C499.011 159.455 499.008 159.524 498.973 159.629C498.937 159.737 498.887 159.825 498.844 159.883L490.821 153.913ZM489.017 159.142C488.949 160.71 489.255 162.342 490.118 163.854L498.801 158.892C498.891 159.05 498.949 159.21 498.98 159.35C499.01 159.485 499.008 159.568 499.007 159.577L489.017 159.142ZM490.172 163.945C490.94 165.226 491.968 166.238 493.105 167.025L498.797 158.803C498.757 158.775 498.729 158.753 498.712 158.739C498.703 158.731 498.696 158.726 498.692 158.722C498.688 158.718 498.687 158.716 498.686 158.716C498.686 158.716 498.688 158.718 498.692 158.722C498.695 158.725 498.699 158.731 498.705 158.738C498.717 158.753 498.731 158.774 498.747 158.8L490.172 163.945ZM493.226 167.106C494.284 167.794 495.447 168.334 496.656 168.766L500.019 159.349C499.372 159.118 498.944 158.896 498.676 158.722L493.226 167.106ZM496.656 168.766C497.828 169.185 499.089 169.531 500.422 169.817L502.517 160.039C501.53 159.827 500.703 159.593 500.019 159.349L496.656 168.766ZM500.361 169.803L504.736 170.798L506.953 161.046L502.578 160.052L500.361 169.803ZM504.784 170.808C507.005 171.29 508.851 171.91 510.364 172.627L514.649 163.591C512.318 162.486 509.722 161.647 506.905 161.036L504.784 170.808ZM510.379 172.634C511.911 173.354 513.059 174.149 513.912 174.969L520.845 167.762C519.079 166.064 516.98 164.687 514.634 163.584L510.379 172.634ZM513.935 174.991C514.769 175.783 515.363 176.655 515.767 177.629L525.006 173.803C524.051 171.496 522.64 169.468 520.822 167.741L513.935 174.991ZM515.767 177.629C516.167 178.595 516.419 179.785 516.431 181.275L526.43 181.194C526.409 178.607 525.965 176.119 525.006 173.803L515.767 177.629ZM516.431 181.209C516.418 183.561 515.84 185.295 514.894 186.651L523.095 192.373C525.364 189.122 526.409 185.338 526.43 181.26L516.431 181.209ZM514.894 186.651C513.923 188.043 512.443 189.253 510.176 190.175L513.942 199.439C517.707 197.908 520.851 195.588 523.095 192.373L514.894 186.651ZM510.167 190.179C507.922 191.096 504.98 191.646 501.196 191.646V201.646C505.897 201.646 510.197 200.97 513.951 199.435L510.167 190.179ZM501.196 191.646C497.424 191.646 494.373 191.08 491.929 190.095L488.19 199.37C492.077 200.936 496.45 201.646 501.196 201.646V191.646ZM491.929 190.095C489.604 189.158 487.971 187.821 486.821 186.118L478.533 191.713C480.896 195.214 484.185 197.755 488.19 199.37L491.929 190.095ZM486.821 186.118C485.739 184.516 485.008 182.245 484.967 178.984L474.968 179.109C475.026 183.803 476.101 188.112 478.533 191.713L486.821 186.118ZM479.967 184.047H491.75V174.047H479.967V184.047ZM486.759 179.349C486.903 181.715 487.562 184.037 488.995 186.049L497.14 180.248C497.015 180.072 496.796 179.66 496.741 178.744L486.759 179.349ZM488.995 186.049C490.369 187.979 492.22 189.366 494.359 190.253L498.189 181.016C497.611 180.776 497.324 180.506 497.14 180.248L488.995 186.049ZM494.379 190.261C496.47 191.118 498.727 191.479 501.047 191.479V181.479C499.754 181.479 498.829 181.278 498.17 181.007L494.379 190.261ZM501.047 191.479C503.127 191.479 505.182 191.202 507.072 190.473L503.473 181.143C503.044 181.309 502.282 181.479 501.047 181.479V191.479ZM507.05 190.482C508.868 189.79 510.593 188.702 511.903 187.047L504.062 180.84C504.112 180.777 504.031 180.931 503.496 181.135L507.05 190.482ZM511.903 187.047C513.224 185.378 513.917 183.401 513.951 181.29L503.952 181.129C503.952 181.135 503.954 181.079 503.984 180.993C504.015 180.906 504.053 180.852 504.062 180.84L511.903 187.047ZM513.951 181.123C513.916 179.097 513.253 177.134 511.86 175.502L504.254 181.995C504.165 181.891 504.077 181.747 504.017 181.582C503.958 181.422 503.953 181.313 503.953 181.296L513.951 181.123ZM511.898 175.548C510.617 174.01 508.924 173.013 507.273 172.334L503.472 181.584C503.834 181.732 504.056 181.859 504.177 181.939C504.297 182.019 504.285 182.032 504.216 181.95L511.898 175.548ZM507.35 172.366C505.789 171.694 503.954 171.142 501.929 170.671L499.668 180.412C501.355 180.804 502.569 181.196 503.395 181.551L507.35 172.366ZM501.936 170.673L496.616 169.43L494.341 179.168L499.661 180.411L501.936 170.673ZM496.596 169.426C492.744 168.542 490.119 167.206 488.385 165.665L481.741 173.139C485.079 176.106 489.397 178.034 494.361 179.172L496.596 169.426ZM488.399 165.677C487.077 164.494 486.273 162.871 486.285 160.226L476.285 160.183C476.263 165.26 477.978 169.769 481.728 173.127L488.399 165.677ZM486.285 160.178C486.273 158 486.838 156.292 487.878 154.849L479.763 149.005C477.389 152.301 476.263 156.112 476.285 160.231L486.285 160.178ZM487.878 154.849C488.998 153.293 490.611 151.974 492.917 150.961L488.893 141.806C485.167 143.444 482.056 145.821 479.763 149.005L487.878 154.849ZM492.917 150.961C495.199 149.958 497.935 149.395 501.221 149.395V139.395C496.785 139.395 492.643 140.158 488.893 141.806L492.917 150.961ZM501.221 149.395C504.606 149.395 507.281 149.971 509.387 150.946L513.588 141.871C509.894 140.161 505.725 139.395 501.221 139.395V149.395ZM509.418 150.96C511.583 151.944 513.082 153.234 514.118 154.782L522.429 149.221C520.25 145.963 517.225 143.524 513.556 141.857L509.418 150.96ZM514.118 154.782C515.134 156.3 515.711 158.117 515.735 160.406L525.734 160.301C525.692 156.26 524.628 152.508 522.429 149.221L514.118 154.782ZM520.734 155.354H508.952V165.354H520.734V155.354ZM525.979 155.084H520.979V160.084H525.979V155.084ZM525.979 145.091V140.091H520.979V145.091H525.979ZM569.009 145.091H574.009V140.091H569.009V145.091ZM569.009 155.084V160.084H574.009V155.084H569.009ZM553.572 155.084V150.084H548.572V155.084H553.572ZM553.572 196V201H558.572V196H553.572ZM541.441 196H536.441V201H541.441V196ZM541.441 155.084H546.441V150.084H541.441V155.084ZM530.979 155.084V145.091H520.979V155.084H530.979ZM525.979 150.091H569.009V140.091H525.979V150.091ZM564.009 145.091V155.084H574.009V145.091H564.009ZM569.009 150.084H553.572V160.084H569.009V150.084ZM548.572 155.084V196H558.572V155.084H548.572ZM553.572 191H541.441V201H553.572V191ZM546.441 196V155.084H536.441V196H546.441ZM541.441 150.084H525.979V160.084H541.441V150.084ZM579.673 196V201H583.346L584.444 197.495L579.673 196ZM566.448 196L561.711 194.402L559.484 201H566.448V196ZM583.625 145.091V140.091H580.035L578.887 143.492L583.625 145.091ZM600.006 145.091L604.744 143.492L603.596 140.091H600.006V145.091ZM617.183 196V201H624.147L621.921 194.402L617.183 196ZM603.959 196L599.188 197.498L600.288 201H603.959V196ZM592.002 157.918L596.773 156.42L595.673 152.918H592.002V157.918ZM591.604 157.918V152.918H587.931L586.833 156.423L591.604 157.918ZM577.908 175.964V170.964H572.908V175.964H577.908ZM605.55 175.964H610.55V170.964H605.55V175.964ZM605.55 185.311V190.311H610.55V185.311H605.55ZM577.908 185.311H572.908V190.311H577.908V185.311ZM579.673 191H566.448V201H579.673V191ZM571.186 197.598L588.363 146.689L578.887 143.492L561.711 194.402L571.186 197.598ZM583.625 150.091H600.006V140.091H583.625V150.091ZM595.269 146.689L612.446 197.598L621.921 194.402L604.744 143.492L595.269 146.689ZM617.183 191H603.959V201H617.183V191ZM608.729 194.502L596.773 156.42L587.232 159.415L599.188 197.498L608.729 194.502ZM592.002 152.918H591.604V162.918H592.002V152.918ZM586.833 156.423L574.901 194.505L584.444 197.495L596.376 159.413L586.833 156.423ZM577.908 180.964H605.55V170.964H577.908V180.964ZM600.55 175.964V185.311H610.55V175.964H600.55ZM605.55 180.311H577.908V190.311H605.55V180.311ZM582.908 185.311V175.964H572.908V185.311H582.908ZM622.665 196H617.665V201H622.665V196ZM622.665 145.091V140.091H617.665V145.091H622.665ZM653.563 147.154L651.338 151.632L651.354 151.64L651.37 151.647L653.563 147.154ZM660.001 153.021L655.697 155.564L655.7 155.57L655.704 155.577L660.001 153.021ZM659.951 171.043L664.185 173.703L664.189 173.696L664.193 173.69L659.951 171.043ZM653.389 176.661L655.442 181.22L655.453 181.215L655.464 181.21L653.389 176.661ZM630.022 178.575H625.022V183.575H630.022V178.575ZM630.022 168.88V163.88H625.022V168.88H630.022ZM645.683 168.159L647.486 172.823L647.503 172.816L647.519 172.81L645.683 168.159ZM648.542 165.922L652.734 168.647L652.744 168.631L652.754 168.615L648.542 165.922ZM648.542 158.141L644.29 160.773L644.3 160.788L644.309 160.804L648.542 158.141ZM645.683 155.805L643.743 160.413L643.769 160.424L643.795 160.434L645.683 155.805ZM634.969 155.009V150.009H629.969V155.009H634.969ZM634.969 196V201H639.969V196H634.969ZM651.326 172.733L655.716 170.341L654.295 167.733H651.326V172.733ZM664.003 196V201H672.422L668.394 193.608L664.003 196ZM650.58 196L646.17 198.356L647.582 201H650.58V196ZM638.151 172.733V167.733H629.811L633.741 175.089L638.151 172.733ZM627.665 196V145.091H617.665V196H627.665ZM622.665 150.091H643.694V140.091H622.665V150.091ZM643.694 150.091C646.91 150.091 649.404 150.671 651.338 151.632L655.788 142.677C652.187 140.887 648.101 140.091 643.694 140.091V150.091ZM651.37 151.647C653.316 152.598 654.709 153.894 655.697 155.564L664.306 150.477C662.277 147.043 659.378 144.429 655.756 142.661L651.37 151.647ZM655.704 155.577C656.675 157.21 657.263 159.301 657.263 162.044H667.263C667.263 157.827 666.343 153.902 664.299 150.465L655.704 155.577ZM657.263 162.044C657.263 164.838 656.659 166.874 655.71 168.395L664.193 173.69C666.326 170.273 667.263 166.31 667.263 162.044H657.263ZM655.718 168.382C654.736 169.945 653.329 171.192 651.314 172.111L655.464 181.21C659.116 179.544 662.085 177.045 664.185 173.703L655.718 168.382ZM651.336 172.101C649.287 173.024 646.662 173.575 643.321 173.575V183.575C647.737 183.575 651.824 182.849 655.442 181.22L651.336 172.101ZM643.321 173.575H630.022V183.575H643.321V173.575ZM635.022 178.575V168.88H625.022V178.575H635.022ZM630.022 173.88H641.035V163.88H630.022V173.88ZM641.035 173.88C643.283 173.88 645.49 173.594 647.486 172.823L643.88 163.496C643.39 163.685 642.499 163.88 641.035 163.88V173.88ZM647.519 172.81C649.603 171.987 651.443 170.632 652.734 168.647L644.349 163.197C644.347 163.2 644.282 163.337 643.847 163.508L647.519 172.81ZM652.754 168.615C654.052 166.585 654.511 164.281 654.511 162.044H644.511C644.511 162.494 644.464 162.796 644.418 162.982C644.373 163.161 644.33 163.226 644.329 163.229L652.754 168.615ZM654.511 162.044C654.511 159.803 654.051 157.509 652.774 155.479L644.309 160.804C644.325 160.829 644.511 161.136 644.511 162.044H654.511ZM652.793 155.51C651.53 153.47 649.699 152.043 647.571 151.175L643.795 160.434C644.186 160.594 644.26 160.725 644.29 160.773L652.793 155.51ZM647.623 151.197C645.577 150.335 643.323 150.009 641.035 150.009V160.009C642.425 160.009 643.27 160.214 643.743 160.413L647.623 151.197ZM641.035 150.009H634.969V160.009H641.035V150.009ZM629.969 155.009V196H639.969V155.009H629.969ZM634.969 191H622.665V201H634.969V191ZM646.935 175.125L659.613 198.392L668.394 193.608L655.716 170.341L646.935 175.125ZM664.003 191H650.58V201H664.003V191ZM654.99 193.644L642.561 170.377L633.741 175.089L646.17 198.356L654.99 193.644ZM638.151 177.733H651.326V167.733H638.151V177.733ZM684.051 196H679.051V201H684.051V196ZM684.051 145.091V140.091H679.051V145.091H684.051ZM696.356 145.091H701.356V140.091H696.356V145.091ZM696.356 186.007H691.356V191.007H696.356V186.007ZM717.535 186.007H722.535V181.007H717.535V186.007ZM717.535 196V201H722.535V196H717.535ZM689.051 196V145.091H679.051V196H689.051ZM684.051 150.091H696.356V140.091H684.051V150.091ZM691.356 145.091V186.007H701.356V145.091H691.356ZM696.356 191.007H717.535V181.007H696.356V191.007ZM712.535 186.007V196H722.535V186.007H712.535ZM717.535 191H684.051V201H717.535V191ZM736.209 145.091H741.209V140.091H736.209V145.091ZM736.209 196V201H741.209V196H736.209ZM723.905 196H718.905V201H723.905V196ZM723.905 145.091V140.091H718.905V145.091H723.905ZM731.209 145.091V196H741.209V145.091H731.209ZM736.209 191H723.905V201H736.209V191ZM728.905 196V145.091H718.905V196H728.905ZM723.905 150.091H736.209V140.091H723.905V150.091ZM787.261 145.091H792.261V140.091H787.261V145.091ZM787.261 196V201H792.261V196H787.261ZM776.821 196L772.705 198.838L774.195 201H776.821V196ZM756.562 166.618L760.678 163.78L759.188 161.618H756.562V166.618ZM756.239 166.618V161.618H751.239V166.618H756.239ZM756.239 196V201H761.239V196H756.239ZM743.934 196H738.934V201H743.934V196ZM743.934 145.091V140.091H738.934V145.091H743.934ZM754.524 145.091L758.652 142.271L757.163 140.091H754.524V145.091ZM774.559 174.423L770.43 177.243L771.919 179.423H774.559V174.423ZM774.982 174.423V179.423H779.982V174.423H774.982ZM774.982 145.091V140.091H769.982V145.091H774.982ZM782.261 145.091V196H792.261V145.091H782.261ZM787.261 191H776.821V201H787.261V191ZM780.937 193.162L760.678 163.78L752.446 169.456L772.705 198.838L780.937 193.162ZM756.562 161.618H756.239V171.618H756.562V161.618ZM751.239 166.618V196H761.239V166.618H751.239ZM756.239 191H743.934V201H756.239V191ZM748.934 196V145.091H738.934V196H748.934ZM743.934 150.091H754.524V140.091H743.934V150.091ZM750.395 147.911L770.43 177.243L778.688 171.603L758.652 142.271L750.395 147.911ZM774.559 179.423H774.982V169.423H774.559V179.423ZM779.982 174.423V145.091H769.982V174.423H779.982ZM774.982 150.091H787.261V140.091H774.982V150.091ZM794.998 196H789.998V201H794.998V196ZM794.998 145.091V140.091H789.998V145.091H794.998ZM830.496 145.091H835.496V140.091H830.496V145.091ZM830.496 155.084V160.084H835.496V155.084H830.496ZM807.303 155.084V150.084H802.303V155.084H807.303ZM807.303 165.524H802.303V170.524H807.303V165.524ZM828.681 165.524H833.681V160.524H828.681V165.524ZM828.681 175.542V180.542H833.681V175.542H828.681ZM807.303 175.542V170.542H802.303V175.542H807.303ZM807.303 186.007H802.303V191.007H807.303V186.007ZM830.496 186.007H835.496V181.007H830.496V186.007ZM830.496 196V201H835.496V196H830.496ZM799.998 196V145.091H789.998V196H799.998ZM794.998 150.091H830.496V140.091H794.998V150.091ZM825.496 145.091V155.084H835.496V145.091H825.496ZM830.496 150.084H807.303V160.084H830.496V150.084ZM802.303 155.084V165.524H812.303V155.084H802.303ZM807.303 170.524H828.681V160.524H807.303V170.524ZM823.681 165.524V175.542H833.681V165.524H823.681ZM828.681 170.542H807.303V180.542H828.681V170.542ZM802.303 175.542V186.007H812.303V175.542H802.303ZM807.303 191.007H830.496V181.007H807.303V191.007ZM825.496 186.007V196H835.496V186.007H825.496ZM830.496 191H794.998V201H830.496V191Z" fill="white" mask="url(#path-3-outside-1_103_2)"/>
</g>
<defs>
<filter id="filter0_d_103_2" x="21.0591" y="4" width="981.882" height="310.106" filterUnits="userSpaceOnUse" color-interpolation-filters="sRGB">
<feFlood flood-opacity="0" result="BackgroundImageFix"/>
<feColorMatrix in="SourceAlpha" type="matrix" values="0 0 0 0 0 0 0 0 0 0 0 0 0 0 0 0 0 0 127 0" result="hardAlpha"/>
<feOffset dy="4"/>
<feGaussianBlur stdDeviation="2"/>
<feComposite in2="hardAlpha" operator="out"/>
<feColorMatrix type="matrix" values="0 0 0 0 0 0 0 0 0 0 0 0 0 0 0 0 0 0 0.25 0"/>
<feBlend mode="normal" in2="BackgroundImageFix" result="effect1_dropShadow_103_2"/>
<feBlend mode="normal" in="SourceGraphic" in2="effect1_dropShadow_103_2" result="shape"/>
</filter>
<clipPath id="clip0_103_2">
<rect width="1024" height="319" fill="white"/>
</clipPath>
</defs>
</svg>
